<svg xmlns="http://www.w3.org/2000/svg" width="816" height="1056"><defs><clipPath clipPathUnits="userSpaceOnUse" id="a"><path d="M0 792h612V0H0z"/></clipPath><clipPath clipPathUnits="userSpaceOnUse" id="b"><path d="M239.871 471.064h49.048v-91.919h-49.048z"/></clipPath><clipPath clipPathUnits="userSpaceOnUse" id="c"><path d="M309.217 428.052h41.404v-49.423h-41.404z"/></clipPath><clipPath clipPathUnits="userSpaceOnUse" id="d"><path d="M242.116 412.246h124.833v-34.279H242.116z"/></clipPath><clipPath clipPathUnits="userSpaceOnUse" id="e"><path d="M297.778 510.017h71.269V379.226h-71.269z"/></clipPath><clipPath clipPathUnits="userSpaceOnUse" id="f"><path d="M274.743 510.008h34.716v-46.596h-34.716z"/></clipPath><clipPath clipPathUnits="userSpaceOnUse" id="g"><path d="M173.748 567.632h262.47V308.028h-262.47z"/></clipPath></defs><g fill="#1a1a1a"><g clip-path="url(#a)" fill="#fff" fill-opacity=".569" transform="matrix(1.33333 0 0 -1.33333 10.643 1006.227)"><path d="M303.035 456.839l-33.306-69.643c-2.634-5.505-8.172-8.731-13.947-8.731-2.21 0-4.453.472-6.582 1.468-7.697 3.6-10.985 12.69-7.345 20.303l33.553 70.157z"/><path d="M303.035 456.839l-33.306-69.643c-2.634-5.505-8.172-8.731-13.947-8.731-2.21 0-4.453.472-6.582 1.468-7.697 3.6-10.985 12.69-7.345 20.303l33.553 70.157z"/><path d="M249.524 379.802a15.5 15.5 0 016.257-1.337c5.775 0 11.313 3.226 13.947 8.732l33.306 69.642-14.774 7.248z"/><path d="M249.524 379.802a15.5 15.5 0 016.257-1.337c5.775 0 11.313 3.226 13.947 8.732l33.306 69.642-14.774 7.248z" stroke="none" stroke-opacity="0"/><g clip-path="url(#b)" opacity=".25" stroke="#fff" stroke-opacity="0"><path d="M275.408 470.393l-33.553-70.157c-3.64-7.612-.352-16.702 7.345-20.303.107-.051.217-.083.325-.131l38.736 84.285z" stroke="none"/><path d="M275.408 470.393l-33.553-70.157c-3.64-7.612-.352-16.702 7.345-20.303.107-.051.217-.083.325-.131l38.736 84.285z" stroke="none"/></g><path d="M255.854 378.467c-4.685 0-9.313 2.09-12.354 6.059-5.147 6.72-3.795 16.282 3.021 21.358 32.437 24.152 61.137 23.847 79.501 19.337 20.495-5.031 33.953-16.533 37.588-19.94a15.094 15.094 0 00.564-21.554c-5.886-6.107-15.676-6.352-21.866-.556-5.547 5.192-35.326 29.518-77.144-1.622a15.55 15.55 0 00-9.31-3.082"/><path d="M255.854 378.467c-4.685 0-9.313 2.09-12.354 6.059-5.147 6.72-3.795 16.282 3.021 21.358 32.437 24.152 61.137 23.847 79.501 19.337 20.495-5.031 33.953-16.533 37.588-19.94a15.094 15.094 0 00.564-21.554c-5.886-6.107-15.676-6.352-21.866-.556-5.547 5.192-35.326 29.518-77.144-1.622a15.55 15.55 0 00-9.31-3.082z"/><g clip-path="url(#c)" opacity=".5" stroke="#fff" stroke-opacity="0"><path d="M349.941 379.27a15.486 15.486 0 00-7.634 3.9c-2.836 2.656-12.009 10.314-25.887 13l-6.582 31.354a82.527 82.527 0 0016.184-2.303 86.193 86.193 0 0013.398-4.495z" stroke="none"/><path d="M349.941 379.27a15.486 15.486 0 00-7.634 3.9c-2.836 2.656-12.009 10.314-25.887 13l-6.582 31.354a82.527 82.527 0 0016.184-2.303 86.193 86.193 0 0013.398-4.495z" stroke="none"/></g><g stroke="#fff" stroke-opacity="0"><g clip-path="url(#d)" opacity=".3"><path d="M255.854 378.467a15.55 15.55 0 019.31 3.082c41.818 31.14 71.597 6.814 77.144 1.622 6.19-5.796 15.98-5.551 21.866.556a15.28 15.28 0 012.126 2.807c-63.112 52.029-113.404 8.995-123.545-.926.235-.367.476-.73.745-1.082 3.041-3.97 7.669-6.06 12.354-6.06" stroke="none"/><path d="M255.854 378.467a15.55 15.55 0 019.31 3.082c41.818 31.14 71.597 6.814 77.144 1.622 6.19-5.796 15.98-5.551 21.866.556a15.28 15.28 0 012.126 2.807c-63.112 52.029-113.404 8.995-123.545-.926.235-.367.476-.73.745-1.082 3.041-3.97 7.669-6.06 12.354-6.06z" stroke="none"/></g></g><path d="M367.063 400.236l-48.089 100.549c-3.64 7.614-12.833 10.865-20.528 7.265-7.697-3.601-10.985-12.691-7.344-20.304l48.087-100.55c2.635-5.506 8.171-8.731 13.948-8.731 2.207 0 4.451.472 6.581 1.468 7.698 3.6 10.986 12.69 7.345 20.303"/><path d="M367.063 400.236l-48.089 100.549c-3.64 7.614-12.833 10.865-20.528 7.265-7.697-3.601-10.985-12.691-7.344-20.304l48.087-100.55c2.635-5.506 8.171-8.731 13.948-8.731 2.207 0 4.451.472 6.581 1.468 7.698 3.6 10.986 12.69 7.345 20.303z"/><g stroke="#fff" stroke-opacity="0"><g clip-path="url(#e)" opacity=".16"><path d="M367.063 400.236l-48.089 100.549c-3.64 7.614-12.833 10.865-20.528 7.265l61.158-128.163c.037.016.076.028.114.046 7.698 3.6 10.986 12.69 7.345 20.303" stroke="none"/><path d="M367.063 400.236l-48.089 100.549c-3.64 7.614-12.833 10.865-20.528 7.265l61.158-128.163c.037.016.076.028.114.046 7.698 3.6 10.986 12.69 7.345 20.303z" stroke="none"/></g></g><path d="M275.408 470.393l14.535 30.393c3.64 7.613 12.834 10.863 20.53 7.264 7.696-3.601 10.984-12.691 7.343-20.303l-14.781-30.908z"/><path d="M275.408 470.393l14.535 30.393c3.64 7.613 12.834 10.863 20.53 7.264 7.696-3.601 10.984-12.691 7.343-20.303l-14.781-30.908z"/><path d="M310.473 508.05c-.56.26-1.13.476-1.701.667l-20.511-44.63 14.774-7.248 14.78 30.907c3.642 7.613.354 16.703-7.342 20.304"/><path d="M310.473 508.05c-.56.26-1.13.476-1.701.667l-20.511-44.63 14.774-7.248 14.78 30.907c3.642 7.613.354 16.703-7.342 20.304z"/><g stroke="#fff" stroke-opacity="0"><g clip-path="url(#f)" opacity=".25"><path d="M289.943 500.785l-14.535-30.393 12.853-6.305 20.51 44.63c-7.303 2.425-15.452-.87-18.828-7.932" stroke="none"/><path d="M289.943 500.785l-14.535-30.393 12.853-6.305 20.51 44.63c-7.303 2.425-15.452-.87-18.828-7.932z" stroke="none"/></g></g><path d="M315.291 542.244c-3.392.325-6.831.491-10.308.491-58.486 0-106.068-47.06-106.068-104.905s47.582-104.905 106.068-104.905 106.068 47.06 106.068 104.905c0 54.406-42.092 99.271-95.76 104.414m-10.308-233.716c-72.088 0-130.735 58.005-130.735 129.302s58.647 129.302 130.735 129.302c72.088 0 130.735-58.005 130.735-129.302s-58.647-129.302-130.735-129.302"/><path d="M315.291 542.244c-3.392.325-6.831.491-10.308.491-58.486 0-106.068-47.06-106.068-104.905s47.582-104.905 106.068-104.905 106.068 47.06 106.068 104.905c0 54.406-42.092 99.271-95.76 104.414m-10.308-233.716c-72.088 0-130.735 58.005-130.735 129.302s58.647 129.302 130.735 129.302c72.088 0 130.735-58.005 130.735-129.302s-58.647-129.302-130.735-129.302z"/><g stroke="#fff" stroke-opacity="0"><g clip-path="url(#g)" opacity=".23"><path d="M304.983 320.727c-65.392 0-118.402 52.43-118.402 117.104s53.01 117.103 118.402 117.103c65.39 0 118.402-52.43 118.402-117.103 0-64.674-53.011-117.104-118.402-117.104m0 246.405c-72.088 0-130.735-58.004-130.735-129.301s58.647-129.302 130.735-129.302c72.088 0 130.735 58.005 130.735 129.302s-58.647 129.3-130.735 129.3" stroke="none"/><path d="M304.983 320.727c-65.392 0-118.402 52.43-118.402 117.104s53.01 117.103 118.402 117.103c65.39 0 118.402-52.43 118.402-117.103 0-64.674-53.011-117.104-118.402-117.104zm0 246.405c-72.088 0-130.735-58.004-130.735-129.301s58.647-129.302 130.735-129.302c72.088 0 130.735 58.005 130.735 129.302s-58.647 129.3-130.735 129.3z" stroke="none"/></g></g><path d="M119.712 69.893c-.887-1.32-.225-1.062-.29-1.303 1.353 2.289.162 1.305.29 1.303M133.068 92.496l-.114-.48 1.79 3.453zM146.673 112.924c-1.92-1.504-4.836-7.466-7.476-10.96l-.534-.511-.613-1.961c2.873 4.47 6.344 10.455 8.623 13.432M155.375 122.815c-.687-.506 1.409 2.464-1.803-2.459l.372.414 1.43 2.045M153.943 120.77c-1.45-2.136 1.151 1.259 0 0M160.584 130.676l-1.729-2.941c.54.49 2.288 2.96 1.747 1.966 1.873 2.947 1.34 2.446-.018.975M162.022 133.608l-.941-1.494c.236.212.527.577.941 1.494M159.133 128.914l1.948 3.2c-.384-.333-.598-.245-.916-1.454 0 .373-.253-.352-1.032-1.746M157.841 127.234c-1.21-1.48-2.692-3.456-.955-.504-3.617-5.414-2.659-4.909.955.504M146.774 114.37l-1.624-1.985-1.027-1.974c.495.998 2.924 3.965 2.65 3.96M173.213 147.69c0 .262-.994-.691-1.3-.784l-1.322-2.144c.837.989 2.34 2.92 2.622 2.928"/><path d="M171.914 146.905l1.979 3.21c-1.981-2.713-2.24-3.284-1.98-3.21M161.728 134.559a220.963 220.963 0 01-3.102-5.373 257.787 257.787 0 003.79 6.346zM181.73 159.24l-.99-1.918 1.84 3.36zM197.9 168.302c-.709-1.438 1.684 1.437.832-.007 1.512 2.097 2.6 4.042 3.652 5.738-1.207-1.735-2.544-3.545-4.484-5.73M204.167 176.873c-.59-.877-1.16-1.817-1.782-2.84.633.929 1.231 1.86 1.782 2.84M177.744 155.232c.248.18.775.486 2.116 2.116l-1.227-.932-.89-1.184"/><path d="M178.59 156.383l.043.033 1.928 2.549c-.25-.326-.842-1.103-1.97-2.582M177.52 154.935c.081.11.142.19.223.298-.119-.09-.182-.15-.224-.298M167.79 142.349c1.092 1.936 3.57 5.832.676 2.419-.687-1.46.97.494-.677-2.42M175.992 153.778a143.175 143.175 0 01-2.433-3.17c.138-.004.69.485.148-.475a156.864 156.864 0 002.285 3.645M177.05 155.427l-1.058-1.648.913 1.166zM199.692 171.684c.87 1.505 2.022 3 3.302 4.704a105.327 105.327 0 01-4.274-5.406c-.082-.335-.478-1.27.972.702M194.527 164.948c.065.1.148.228.21.32-.17-.166-.293-.31-.21-.32M215.84 192.984l-.27-.217c.003-.036.011-.065.01-.107zM198.428 170.722c-1.092-1.327-1.622-2.214-2.1-3.077a132.633 132.633 0 002.392 3.337c.037.151.021.196-.292-.26M207.59 181.624a90.136 90.136 0 01-2.006-2.21c.643.61 1.901 1.892 2.006 2.21M195.177 165.663l-.138-.217c.409.397.332.367.138.217M195.177 165.663c.479.746.809 1.366 1.15 1.982a67.817 67.817 0 01-1.59-2.376 4.9 4.9 0 00.44.394M217.676 199.649c.134-.495-2.458-4.21-5.173-7.041-2.117-3.223.447-2.037 3.067.159-.064.202-.19.301 2.101 3.524-.514-.475-1.999-2.093-3.097-3.267-1.093-1.178-1.84-1.879-.96-.449 3.071 4.242 2.782 3.265 4.53 5.126-1.742-1.379 3.61 5.638 2.33 5.204l-2.678-3.739c-.142.003.76 1.413-.12.483M210.937 186.844l-.955-1.315c1.187 1.421 2.123 2.374 3.86 4.111 1.5 2.256 1.728 2.791 1.738 3.02l-4.936-6.293zM205.522 179.76c.434 1.266 2.677 4.465.845 2.86-2.895-3.792-1.76-2.864-3.354-5.23 4.623 6.15-1.162-1.895 2.433 2.353-.866-1.24-1.68-2.329-2.451-3.355a155.166 155.166 0 002.589 3.026l-.128-.123-.021-.029-.001.01c-.245-.229-.338-.296-.085-.019.01.024.067.1.09.132-.015.078.03.223.085.374 1.433 1.707.303.21-.084-.374 0-.033-.02-.093-.006-.113l.022.02 4.526 6.237c-1.044-1.253-2.284-2.875-4.46-5.769M170.112 148.654c.17.173.189.146.225.143.248.436.329.611-.225-.143M172.172 151.082c-.278-.492-.411-.973-1.51-2.429-1.026-1.209-.162.128-.325.144-.548-.961-1.991-3.307.187-.63l.27.478c1.922 2.443 4.695 5.356 4.435 4.875-.86-.494-1.546-.982-3.057-2.438M194.087 166.43l3.666 5.276-2.25-2.399.277-.002c-2.252-2.876-1.56-2.409-1.693-2.876M216.467 193.423l-.175-.945 1.816 3.286zM221.646 199.955l.116-.487 1.192 1.863zM370.478 483.998l-1.885-.116c.893.036 1.466.075 1.885.116M384.127 483.995l.336.195c-.633-.108-.893-.188-.336-.195M351.292 347.4c2.259 1.592 4.988 3.131 4.431 3.261l-.923-.23a55.317 55.317 0 00-3.508-3.03M446.099 450.147l-.49-.648-.501-1.845c.298.75.637 1.6.99 2.493M445.41 452.693l1.918 3.047c-.464-.671-1.084-1.65-1.919-3.047M296.012 481.156l-2.17-.562c3.435.19 1.91.33 2.17.562M236.14 221.055c3.187 3.72 5.706 6.696 7.864 9.375-4.027-4.27-7.421-7.563-7.864-9.375M375.842 488.611c-1.157-.08-1.651-.17-1.617-.267 1.19.077 1.865.161 1.617.267M252.77 241.651a991.939 991.939 0 01-1.744-1.897c-2.12-2.95-4.272-5.898-7.022-9.324 2.956 3.174 6.206 6.957 8.767 11.221M261.625 561.347l.494.367c.006.083-.2-.095-.494-.367M323.656 610.288c-.564-.534-1.514-1.374-2.406-2.169.456.363 1.186 1.012 2.406 2.17M243.064 225.76c-1.111-1.376-.143-.247 0 0M236.235 220.257c.204.32.339.58.291.678-.013-.179-.12-.41-.291-.678M271.786 274.623l.202.243c-.804-.715-.663-.594-.202-.243M241.208 223.844c.466.476.99 1.034 1.548 1.653-.26-.258-.733-.759-1.548-1.653M241.594 223.988l-1.022-1.16c-.088-.217.073-.095 1.022 1.16M244.624 227.665a70.882 70.882 0 00-1.868-2.167c.244.247.357.343.308.262l1.56 1.905M169.823 469.567a87.029 87.029 0 00-.467-.028c-2.559-.562-1.479-.372.467.028M383.15 380.972a29.657 29.657 0 00-.139-.148c.067.05.15.114.208.16zM387.73 385.377c-1.685-2.178-2.89-3.137-4.51-4.394l2.405.434z"/><path d="M171.286 475.683l-.635-.392c.877.959.733.664.635.392m69.475-240.728c-.343-.498-.265-.51-.047-.363.18.396 1.055 1.416 2.083 2.549-.374-.238-.947-.766-2.036-2.186m4.08 4.382l.071.119c2.03 2.053 1.304 1.33-.072-.12m195.568 202.789c.36.902 1.19 2.123 2.212 3.46a36.116 36.116 0 00-2.212-3.46m-35.952 41.847c-1.294-.062-3.874-.362-4.814-.061 1.481.53 2.615.27 4.814.06m-66.648-.664l4.468-.264c-5.362-.794-9.257-.682-5.059-1.112.295.688 4.625.845 8.952 1.002 4.33.14 8.657.21 8.956.903l2.944-.242c-.842 0-.975-.081-1.808-.08 5.724-.574 4.233 1.066 11.605.942 2.57-.1 4.362-.294 2.612-.458l5.721.346c1.665-.023 1.258-.26-.399-.237l8.727.123-.064-.04c1.245.212 4.07.499 5.45.626 2.216-.22-1.114-.131-.549-.307l4.838.273c1.965-.374-2.045-.67-5.382-.58 4.5-1.41 4.014.295 13.74-.61l-4.563-.12c2.93-.795 6.491-.56 11.633-1.186-1.214.29-10.295 1.45-5.047 1.674 1.475-.14 3.421-.236 6.256-.033.015-.484 2.778-.434 6.235-.492l-.254-.634c3.74.09 3.454.429 5.661.654 4.16-.222 5.006-.75 5.97-1.205 6.658-.356-4.572.97 3.32.789 5.534-.453 9.435-.324 16.082-.308 3.868-.42-.698-.356.684-.61l3.464.333c.841-.056.56-.2.42-.271 1.452.025 1.52.18 1.796.324.384.137.535.283 2.07.292.32.159.875.155 1.501.07.126.025.053-.095.02-.188-.04-.094-.078-.191-.118-.291-.08-.196-.167-.401-.256-.616l-.557-1.266c-.089-.2-.18-.404-.275-.612-.1-.237-.257-.674-.382-1.01a55.79 55.79 0 01-.76-2.2c-.246-.738-.445-1.49-.657-2.217a21.434 21.434 0 01-.58-2.118c-.65-1.23-.14.753-.52.44-2.18-7.343-1.8-6.316-3.765-12.34-.877-1.573-1.68-3.174-2.61-4.71 1.087 1.662 1.183 1.318.862 0-.383-1.286-1.259-3.51-2.092-5.594.863 1.14 1.606 2.119 2.071 2.796l-3.033-6.482c-.553-.68-.32.019-.029 1.194-.178-.457-.345-.892-.498-1.22-1.528-2.062-1.15-.746-.536.992.52.699 1.034 1.395 1.535 2.072.476 1.74.854 3.383.352 3.233-.148-.44-.503-1.251-.924-2.13.12.455.172.757.018.6-.17-.18-.388-.897-.783-1.998l-1.368-1.07c.025-.162.041-.32.055-.477l-5.145-7.645c-1.558-2.908-2.908-5.725-4.653-8.887a151.7 151.7 0 00-3.11-4.965c-.59-.891-1.198-1.835-1.889-2.796a181.157 181.157 0 00-2.292-2.97c1.276 2.345-.299.975-.685 1.479 1.17.893 2.452 2.48 3.738 4.462a135.285 135.285 0 004.436 6.353c-1.698-2.27-1.61-1.56-1.243-.937-1.806-2.67-3.55-5.398-5.42-8.044-.255.486-1.616-1.341-3.397-3.148.997.412-.033-1.082-1.604-3.087-1.624-1.96-3.848-4.372-5.059-5.947-.412.047-.028.982 3.266 4.497-4.129-3.42-3.705-5.931-7.85-9.222.814.852 1.295 1.273 1.496 1.725-.85-1.091-2.494-2.805-3.81-4.077-1.305-1.286-2.358-2.053-1.882-1.408l.837.827-10.817-10.4c-1.832-1.796-3.522-3.444-4.78-4.723-1.253-1.288-2.055-2.226-2.133-2.581-.13.03.088 1.453.326 1.896-2.827-3.835-5.759-7.595-8.67-11.39.456 1.363-4.26-.42.394 4.155-1.473-1.152-3.313-2.562-6.143-5.323 1.038.75 3.105 1.268 1.823.082-4.169-2.496-2.805-1.833-7.753-5.138 1.56 1.124.683-1.13-1.643-3.065.248.438-.927.697-.16 1.505-1.677-1.903-3.315-3.861-4.967-5.791 1.285 1.39-.37.94-1.852.07.735.349-4.93-4.273-6.373-5.68l2.582 1.907c-3.265-2.736-4.59-4.417-5.895-6.1-1.319-1.67-2.583-3.381-5.719-6.205.6.86.914 2.763-2.36-.023-1.075-1.755-4.587-7.916-9.798-13.254l-1.264-.742-3.896-4.21a135.54 135.54 0 005.214 7.317c2.244 2.923 4.682 5.996 6.47 8.1-2.535-1.951-.919-.31-4.432-3.545-1.457-.908 1.61 2.097 2.637 3.057l-8.353-7.352c.816-.153-5.715-6.342-5.023-6.457 2.78 2.918 5.487 5.916 8.335 8.766.415-.09-.575-1.59-2.349-3.778-1.768-2.195-4.359-5.034-7.255-7.696-1.637-1.183.264 1.898-.008 1.949-.583-.871-5.122-5.461-5.76-5.84l2.177 2.558c-3.343-2.852-4.62-5.52-8.793-8.782-1.323-1.245-4.473-3.195-4.418-3.7 2.651 1.537 4.72.244 3.72-1.552-.49-.408-7.298-6.165-9.042-7.354-2.555-1.675 2.184 4.168.007 2.746.051-.207-.966-1.528-1.405-2.063-1.47-1.231.16.957-2.735-2.016-.005-.97-5.932-6-.963-1.807-2.693-3.041-3.108-2.99-6.413-6.421 1.373.777-1.91-4.11-4.603-7.15.042.292-.756-.204-1.139-.45l-7.362-7.444c-2.197-2.22-4.342-4.393-6.994-7.218-.609-.408-3.314-3.002-2.44-1.641-.673-.896-1.208-1.797-2.824-3.558-1.765-1.521-.894-.511.07.6.977 1.099 2.04 2.308.572 1.26.057-.463-3.76-4.944-5.859-7.638 1.171.35 5.314 5.799 7.503 8.42.32-.283-.39-1.642-1.798-3.733-1.393-2.106-3.504-4.924-6.068-8.06-4.148-4.913-2.272-1.704-2.93-2.613-8.215-8.862-5.764-8.637-12.799-15.798-3.013-2.652-.926.566-1.797.154 3.282 4.093 5.53 5.853 7.841 8.55l-3.057-3.135c.96 1.376 3.14 4.12 4.55 5.417-1.325-1.055-4.667-4.915-8.522-9.322a753.436 753.436 0 00-11.37-12.804c-.925-1.39-2.615-3.704-1.582-2.805l1.833 2.312c2.068 1.8-3.1-4.647-.553-1.913-2.302-3.233-4.774-6.941-8.529-11.057l-1.144-.412c.215-.023 2.614 2.56 3.474 3.88-1.268-1.96-6.135-6.008-7.1-8.505.916.93 1.863 1.836 2.807 2.744-2.319-3.235-4.836-7.51-8.089-11.217 1.876 1.369.658.93 3.403 3.215-1.293-.906.69 1.545 2.522 3.82 1.816 2.29 3.58 4.326 1.646 2.757 2.94 2.237 4.257 4.555 7.807 7.713-.249.017-1.364-1.03 1.364 2.082.075.182.3.567.445.81l.191.206-.165-.16c.092.158.097.173-.06-.06-.7-.7-1.293-1.244-1.587-1.421.96 1.875 5.191 6.92 6.435 8.785 1.665 1.809-.49-.933.542-.05l1.904 2.747c.558-.043 4.841 4.443 1.251-.097l3.426 3.918c2.2 2.15 5.036 5.267 6.596 7.355 1.682 1.79 3.691 5.014 2.553 3.165 1.72 2.11 3.496 4.173 5.242 6.263l.135-.02c5.451 5.927 10.494 12.879 17.443 18.996 1.771 2.057 3.587 4.197 6.782 7.419l.886.378c2.247 2.668 7.52 7.27 8.268 8.626 3.391 1.94 11.89 11.993 16.45 16.092l-.193.522c3.02 2.939 5.796 5.877 9.38 9.698l-.542.095c.74.856 1.635 1.787 2.655 2.76 1.033.962 2.18 1.98 3.394 3.046 2.426 2.134 5.118 4.463 7.692 6.934-.234-.46-1.579-1.671-2.58-2.477 3.45 2.556 6.56 5.806 9.638 8.954 3.104 3.118 6.115 6.199 9.222 8.527a26.13 26.13 0 003.461 3.139 4.876 4.876 0 01-.338-.34l.59.53 2.138 1.623a31.888 31.888 0 01-1.825-1.336c1.102.995 2.7 2.59 4.304 4.109l1.03.258.375.346c1.75 1.292 1.162 1.316.05.828.786.79 1.491 1.532 2.01 2.139 1.84.573 4.196 4.008 6.552 4.963.853 1.287 8.168 7.535 8.537 8.924.13-.035.66.348-.244-.432 1.94 1.528 3.88 3.049 5.406 4.672l1.194.216 3.56 4.13c2.727 1.852 3.89 2.59 1.74.095 5.451 5.719 4.667 4.358 9.177 9.355l.02-.513c1.776 1.604 4.28 4.53 5.542 5.288 1.108.769 2.883 2.275 5.087 4.238 2.168 2.003 4.75 4.484 7.493 7.172l4.137 4.233 2.117 2.159 2.05 2.219 4.042 4.299 3.682 4.067c-2.614-1.318 4.543 4.586 4.078 5.664.704.47 1.997 1.914.83-.018 4.137 5.724 6.602 8.363 8.746 12.802.69.519-.515-1.471.03-.966.131.253.406.746.7 1.252.274.517.585 1.037.845 1.309.503.539-.32-1.027-.846-2.025 3.768 6.214 3.38 7.289 2.97 8.128 1.138 1.445 1.796 2.648 2.357 3.755.551 1.114.942 2.168 1.321 3.452.822 1 2.055 2.76.053-1.25l1.676 3.047c.395.679.757 1.454 1.122 2.258l1.117 2.443c.734 1.628 1.42 3.2 1.892 4.394.498 1.183.643 2.045.533 2.157.425.68 1.267 3.285 1.428 3.932.502 1.32.89 2.34 1.218 3.207l.461 1.206c.13.38.233.749.346 1.113l.694 2.335 1.055 3.673-.66-1.875c.001 1.37.336 2.66.873 4.339l.444 1.353.121.367c-.109.017-.238.023-.359.035a79.89 79.89 0 01-4.447.282l.184.07-3.41.325-2 .157c-1.044.064-1.59.062-2.132.06-1.082 0-2.146.008-7.145.583l.524-.507c-.979-.97-8.859.954-14.699.789l2.092-.354c-3.19-.222-8.84 1.742-12.038 1.925-.695.107 1.104.117 2.08.159-8.356.816-1.104-.601-7.343-.592-1.143.367 1.504.825-2.694.992-1.043.15-4.094-.011-7.598-.203-3.504-.187-7.458-.323-10.319.036 1.26-.276 2.51-.552-.389-.714-4.438-.007-12.002 1.05-16.013.217-.564.07-.777.138-.802.203-1.696-.11-4.454-.202-7.042-.324-2.587-.132-5.004-.333-6.024-.566-1.577.805-6.85.524-11.72.233-4.868-.306-9.328-.701-9.312.074l-10.434-.377.267.163c-6.673-.148-9.017-.632-11.344-1.09-1.546.04-.427.229-.303.314-9.755-.076-10.723-.247-18.842-1.446l-.876.448c-1.098-.216-4.63-.176-9.073-.317-4.443-.144-9.802-.387-14.552-1.002.09.063.28.172 1.033.294-10.68-1.364-25.807-.69-29.565-2.906l-7.024-1.114c9.154.728-1.285-.908 2.504-.85-3.582-.44-9.342-.351-4.937.172l.7-.025c1.524 1.138-11.379-.867-11.202-.207l-26.587-2.882c-4.364-.484-8.686-1.028-12.97-1.545-4.287-.514-8.53-1.055-12.717-1.688l2.034-.437-4.409-.613c-.83.049-.437.514 1.484.769-.462.14-1.176-.053-2.157-.36-.942-.3-2.159-.713-2.376-.825-2.17-.173-.83.24.31.59 1.202.36 2.291.667 1.821.606l-1.48-.275a.468.468 0 01.082-.074c-.746-.23-1.278-.392-1.795-.55-.114.147.06.485 1.62 1.83.841.645 1.177.792 1.4.858.22.064.326.046.561.234.08 0 .24.11.68.572l4.684 4.054-2.61-1.534c2.281 2.394 5.258 4.603 2.254 2.824 4.441 2.576 21.02 18.08 23.544 19.89 3.18 3.37 6.598 6.379 10.86 10.076-1.13-.838-2.19-.907 1.51 2.254-.447-2.182 7.064 5.462 10.65 7.343-3.058-1.847 10.263 9.275 5.53 6.305 3.114 2.607.516-.212 3.033 1.59 6.9 6.786 16.186 13.845 25.023 21.883.023.255-1.654-.868.093 1.024l5.31 3.516c1.71 1.626.955 2.199 4.59 4.594-.554-.292-1.383-.726-.234.363 18.106 14.847 35.375 32.179 54.253 46.702-2.638-1.875-1.053-.43.781 1.207-1.252-.997-.26.349-.653.32l7.895 6.089c.921 1.696 7.965 7.095 8.325 8.257l-2.286-2.171c2.647 3.333-5.493-2.638-5.668-1.514-2.954-3.741-10.103-7.247-15.068-13.252-1.404-.98.882 1.19.053.755-1.19-1.6-2.9-3.223-6.294-5.975l.302.403c-9.129-8.196-13.339-11.373-23.846-20.294l1.078.32c-2.26-1.912-2.827-2.214-3.945-3.042-2.072-2.79 6.261 5.475 4.464 2.832-3.582-1.878-15.662-13.813-18.377-14.75-3.419-3.011 1.364.473-2.054-2.537l-1.1-.577-.61-1.048c-2.282-1.93-3.657-2.65-3.906-2.535.562.457 1.497 1.416 2.065 1.946-3.134-2.302-8.107-7.318-9.179-8.114l3.402 2.76c-9.136-8.437-20.77-18.194-29.376-26.597l.832.436c-6.602-6.381-5.67-4.68-13.092-11.49l.24.283c-1.364-1.501-3.307-3.367-5.39-5.172 1.733 1.879-3.923-2.786-1.614-.361-7.162-6.917-3.457-3.518-7.83-8.49l-1.382-.724c-1.456-1.734-1.48-1.99-5.186-5.392 2.882 2.97-2.78-1.701.405 1.674-8.447-6.38-11.205-10.99-15.619-13.305-2.954-3.978 7.223 5.619 5.334 3.658 1.925 1.253-2.49-3.224-5.042-5.34-1.27-1.107-2.563-1.81-4.33-2.94a49.387 49.387 0 01-3.063-2.117c-.466-.332-1.512-1.191-2.512-2.03a161.744 161.744 0 01-3.326-2.872c.956.838.914.905 1.882 1.754-1.984-1.578-3.698-3.21-5.405-4.807-1.742-1.63-3.455-3.207-6.355-5.484l-.03-.064c2.54.667 4.218.903 5.78 1.149 1.538.24 2.874.479 3.967 1.035l-7.842-1.298 2.13 1.949a55.88 55.88 0 01-1.805-1.797c2.732.57 5.547 1.16 8.793 1.839 1.432.283 2.85.542 4.343.77a85.944 85.944 0 003.576.47c.394.038.797.078 1.21.12a5.17 5.17 0 00-.688-.231l-1.344-.333a126.977 126.977 0 00-3.286-.72c1.327.08 2.764.333 4.134.575.768.133 1.17.212 1.715.292.521.076 1.053.134 1.606.156-.127-.22-.772-.426-1.74-.634l-.785-.155c-.406-.07-.836-.141-1.286-.217l-2.986-.468c-4.268-.654-9.059-1.361-13.53-2.33 1.32.026 5.246.754 7.86 1.222 1.325.236 2.375.415 2.83.44.448.027.336-.095-.856-.49 1.686.527 3.193.88 4.77 1.166.785.143 1.587.268 2.421.388.634.083 1.29.169 1.968.256 2.361.287 5.012.584 7.8 1.367l-.31-.52c.888.195 2.721.669 4.378.88l-2.913-1.014c4.53 1.14 8.93.743 13.303 1.622-9.236-1.262-2.148.287-6.1.102 11.318 2.177 6.717-.37 19.46 1.438-1.722-.277-6.529-.507-3.85.04 2.445.199 5.68.409 7.2.343 8.457 1.103-1.357.338 2.214 1.055 2.952-.252 4.138.687 7.837 1.276l.08-.477c9.696.738 2.454 1.28 11.2 1.845l-3.61-1.061c1.506.215 3.01.457 4.52.648l-.883-.634c4.9.874 6.451.915 11.306 1.22-1.158.233.55.932 4.838 1.355 2.951-.022-1.599-.582 4.477.003-1.348-.406-2.818-.913-5.5-.73-.257-.181-1.326-.43-1.59-.61 3.174-.01 7.917.647 10.12.819-.849-.051-1.864-.108-2.39-.082l8.762 1.385c1.403-.067.313-.302-.766-.533 1.782.198 3 .52 5.623.775-.65-.446-.456-.836-4.156-1.324 2.788.36 5.573.774 8.367 1.09.574-.13 4.347-.172 3.266-.39 4.675.062 11.377 1.596 17.583 1.599.317.094.957.202 2.27.33 5.82.213 10.986.08 17.857.87l3.94-.54c5.392.384-5.332.665 3.65 1.304 6.358.489 2.398-.5 4.637-.603 3.152.458 8.64 1.324 14.506.92-1.933-.186-3.454-.125-5.262-.228" stroke="#e8e8e8" stroke-opacity="1"/><path d="M445.473 452.368c.24.283.367.33.487.364.163.483.084.535-.487-.364M296.413 481.26l-.203-.006a.5.5 0 01-.198-.098zM291.205 294.987c1.74 1.838 2.776 2.787 3.51 3.364-.066.295-.947-.433-3.51-3.364M231.508 211.576l2.356 3.02c-1.17-1.436-1.674-1.876-2.333-2.546.143-.007.736.453-.023-.474M208.455 187.394c-.297-.479-.723-.944-1.014-1.419l.27-.017c1.45 1.9 2.33 3.332.744 1.436M228.044 209.825c-.505.019-1.906-1.943-3.53-4.085l.298.37c-.055-.973 1.592 1.375 3.232 3.715M224.134 205.246a53.345 53.345 0 00-1.548-1.942c-.019-.388.668.755 1.548 1.942M246.533 230.434c-.895-.908-.117-.948-.704-1.395-.55-1.398 5.038 6.854.704 1.395M225.644 208.972l.993.435.63 1.43zM239.448 225.102l-2.86-3.208c.107-.004-.205-.454-.606-.993 1.709 2.021 3.644 4.183 3.466 4.201M235.982 220.901c-.891-1.052-1.723-2.065-2.151-2.706.473.575 1.489 1.818 2.151 2.706M229.207 213.645l.895.908 1.973 2.306zM222.735 209.632l5.683 8.042c.362 1.059-1.387-.917-3.484-3.936-1.241-2.054-3.331-5.057-2.2-4.106M203.049 187.969c1.704 2.002 1.964 1.98 3.096 2.926l-.691 1.162c-.823-1.342-1.612-2.717-2.405-4.088M219.987 211.07c.347 1.04 7.864 12.122.45 2.126-.362-1.052-6.062-9.115-.45-2.126M303.14 303.725l-1.582-1.897 1.573-1.355zM351.024 354.112c-4.344-3.496-.577-1.34-4.516-4.482-.806-1.059 3.207 2.581 2.355 1.524 2.325 2.44 3.777 3.463 2.161 2.958"/><path d="M348.863 351.154a50.301 50.301 0 01-1.165-1.269c.677.702.983 1.046 1.165 1.27M333.83 618.543l2.82 2.207-1.956-1.27zM338.472 623.65l1.06.07 1.22 1.862c-.586-.556-1.723-1.635-2.28-1.931M414.33 482.418l.275.15c-.547.183-1.38.216-3.052.284z"/><g><path d="M365.99 483.35l.832-.006-1.56.57z"/></g><g><path d="M325.446 481.648c1.654.04 3.594.269 5.258.279-3.604-.213-5.733.425-5.258-.28"/></g></g></g></svg>