<?xml version="1.0" encoding="UTF-8" standalone="no"?>
<!-- Created with Inkscape (http://www.inkscape.org/) -->

<svg
   xmlns:osb="http://www.openswatchbook.org/uri/2009/osb"
   xmlns:dc="http://purl.org/dc/elements/1.1/"
   xmlns:cc="http://creativecommons.org/ns#"
   xmlns:rdf="http://www.w3.org/1999/02/22-rdf-syntax-ns#"
   xmlns:svg="http://www.w3.org/2000/svg"
   xmlns="http://www.w3.org/2000/svg"
   xmlns:sodipodi="http://sodipodi.sourceforge.net/DTD/sodipodi-0.dtd"
   xmlns:inkscape="http://www.inkscape.org/namespaces/inkscape"
   version="1.1"
   id="svg2"
   xml:space="preserve"
   width="816"
   height="1056"
   viewBox="0 0 816 1056"
   sodipodi:docname="quick-white-logo.svg"
   inkscape:version="0.92.4 5da689c313, 2019-01-14"><metadata
     id="metadata8"><rdf:RDF><cc:Work
         rdf:about=""><dc:format>image/svg+xml</dc:format><dc:type
           rdf:resource="http://purl.org/dc/dcmitype/StillImage" /><dc:title /></cc:Work></rdf:RDF></metadata><defs
     id="defs6"><linearGradient
       id="linearGradient6488"
       osb:paint="solid"><stop
         style="stop-color:#fff;stop-opacity:1;"
         offset="0"
         id="stop6486" /></linearGradient><clipPath
       clipPathUnits="userSpaceOnUse"
       id="clipPath26"><path
         d="M 0,792 H 612 V 0 H 0 Z"
         id="path24"
         inkscape:connector-curvature="0" /></clipPath><clipPath
       clipPathUnits="userSpaceOnUse"
       id="clipPath118"><path
         d="m 239.871,471.064 h 49.048 v -91.919 h -49.048 z"
         id="path116"
         inkscape:connector-curvature="0" /></clipPath><clipPath
       clipPathUnits="userSpaceOnUse"
       id="clipPath146"><path
         d="m 309.217,428.052 h 41.404 v -49.423 h -41.404 z"
         id="path144"
         inkscape:connector-curvature="0" /></clipPath><clipPath
       clipPathUnits="userSpaceOnUse"
       id="clipPath166"><path
         d="M 242.116,412.246 H 366.949 V 377.967 H 242.116 Z"
         id="path164"
         inkscape:connector-curvature="0" /></clipPath><clipPath
       clipPathUnits="userSpaceOnUse"
       id="clipPath194"><path
         d="m 297.778,510.017 h 71.269 V 379.226 h -71.269 z"
         id="path192"
         inkscape:connector-curvature="0" /></clipPath><clipPath
       clipPathUnits="userSpaceOnUse"
       id="clipPath214"><path
         d="m 301.8,508.293 h 29.376 v -65.39 H 301.8 Z"
         id="path212"
         inkscape:connector-curvature="0" /></clipPath><clipPath
       clipPathUnits="userSpaceOnUse"
       id="clipPath250"><path
         d="m 274.743,510.008 h 34.716 v -46.596 h -34.716 z"
         id="path248"
         inkscape:connector-curvature="0" /></clipPath><clipPath
       clipPathUnits="userSpaceOnUse"
       id="clipPath278"><path
         d="m 173.748,567.632 h 262.47 V 308.028 h -262.47 z"
         id="path276"
         inkscape:connector-curvature="0" /></clipPath></defs><sodipodi:namedview
     pagecolor="#ffffff"
     bordercolor="#ffff"
     borderopacity="1"
     objecttolerance="10"
     gridtolerance="10"
     guidetolerance="10"
     inkscape:pageopacity="0"
     inkscape:pageshadow="2"
     inkscape:window-width="1366"
     inkscape:window-height="722"
     id="namedview4"
     showgrid="false"
     inkscape:zoom="0.13035522"
     inkscape:cx="-1872.7262"
     inkscape:cy="833.30988"
     inkscape:window-x="0"
     inkscape:window-y="21"
     inkscape:window-maximized="1"
     inkscape:current-layer="g22"
     showguides="true"
     inkscape:guide-bbox="true"><sodipodi:guide
       position="192.40678,418.37288"
       orientation="0,1"
       id="guide309"
       inkscape:locked="false" /><sodipodi:guide
       position="671.13789,211.28415"
       orientation="0,1"
       id="guide311"
       inkscape:locked="false" /><sodipodi:guide
       position="228.20339,516.81356"
       orientation="1,0"
       id="guide313"
       inkscape:locked="false" /><sodipodi:guide
       position="583.9322,237.15254"
       orientation="1,0"
       id="guide315"
       inkscape:locked="false" /><sodipodi:guide
       position="165.15269,299.5548"
       orientation="1,0"
       id="guide317"
       inkscape:locked="false" /><sodipodi:guide
       position="648.81356,642.10169"
       orientation="1,0"
       id="guide319"
       inkscape:locked="false" /><sodipodi:guide
       position="-393.76271,830.03389"
       orientation="0,1"
       id="guide321"
       inkscape:locked="false" /><sodipodi:guide
       position="559.32203,400.47457"
       orientation="0,1"
       id="guide323"
       inkscape:locked="false" /><sodipodi:guide
       position="-416.13559,758.44067"
       orientation="0,1"
       id="guide325"
       inkscape:locked="false" /><sodipodi:guide
       position="-436.27118,586.16949"
       orientation="0,1"
       id="guide327"
       inkscape:locked="false" /><sodipodi:guide
       position="404.94915,456.40678"
       orientation="1,0"
       id="guide329"
       inkscape:locked="false" /></sodipodi:namedview><g
     id="g10"
     inkscape:groupmode="layer"
     inkscape:label="lastdark"
     transform="matrix(1.3333333,0,0,-1.3333333,0,1056)"><g
       id="g16"
       transform="matrix(2.3149822,0,0,2.3748063,143.10415,231.00582)"
       style="fill:#1a1a1a" /><g
       id="g1697"
       transform="translate(10.490178,37.328538)"
       style="fill:#1a1a1a"><g
         id="g20"
         style="fill:#1a1a1a"
         transform="translate(-2.5077203,0.00156403)"><g
           id="g1410"
           style="opacity:1;fill:#1a1a1a;fill-opacity:1"><g
             id="g22"
             clip-path="url(#clipPath26)"
             style="fill:#1a1a1a;fill-opacity:1"><g
               id="g28"
               transform="matrix(1.8745067,0,0,2.247737,168.97731,241.51499)"
               style="fill:#ffffff;fill-opacity:0.56862748" /><g
               id="g32"
               transform="matrix(1.8745067,0,0,2.247737,168.97731,241.51499)"
               style="fill:#ffffff;fill-opacity:0.56862748" /><g
               id="g36"
               transform="matrix(1.8745067,0,0,2.247737,214.79288,208.17205)"
               style="fill:#ffffff;fill-opacity:0.56862748" /><g
               id="g40"
               transform="matrix(1.8745067,0,0,2.247737,214.79288,208.17205)"
               style="fill:#ffffff;fill-opacity:0.56862748" /><g
               id="g44"
               transform="matrix(1.8745067,0,0,2.247737,252.95389,237.50682)"
               style="fill:#ffffff;fill-opacity:0.56862748" /><g
               id="g48"
               transform="matrix(1.8745067,0,0,2.247737,252.95389,237.50682)"
               style="fill:#ffffff;fill-opacity:0.56862748" /><g
               id="g52"
               transform="matrix(1.8745067,0,0,2.247737,278.46745,224.40678)"
               style="fill:#ffffff;fill-opacity:0.56862748" /><g
               id="g56"
               transform="matrix(1.8745067,0,0,2.247737,278.46745,224.40678)"
               style="fill:#ffffff;fill-opacity:0.56862748" /><g
               id="g60"
               transform="matrix(1.8745067,0,0,2.247737,363.78036,229.35877)"
               style="fill:#ffffff;fill-opacity:0.56862748" /><g
               id="g64"
               transform="matrix(1.8745067,0,0,2.247737,363.78036,229.35877)"
               style="fill:#ffffff;fill-opacity:0.56862748" /><g
               id="g68"
               transform="matrix(1.8745067,0,0,2.247737,392.34654,216.87776)"
               style="fill:#ffffff;fill-opacity:0.56862748" /><g
               id="g72"
               transform="matrix(1.8745067,0,0,2.247737,392.34654,216.87776)"
               style="fill:#ffffff;fill-opacity:0.56862748" /><g
               id="g76"
               transform="matrix(1.8745067,0,0,2.247737,411.81291,208.17205)"
               style="fill:#ffffff;fill-opacity:0.56862748" /><g
               id="g80"
               transform="matrix(1.8745067,0,0,2.247737,411.81291,208.17205)"
               style="fill:#ffffff;fill-opacity:0.56862748" /><g
               id="g88"
               transform="matrix(1.8745067,0,0,2.247737,457.83712,256.8277)"
               style="fill:#ffffff;fill-opacity:0.56862748" /><g
               id="g92"
               transform="matrix(1.8745067,0,0,2.247737,457.83712,256.8277)"
               style="fill:#ffffff;fill-opacity:0.56862748" /><g
               id="g96"
               transform="translate(303.0347,456.8389)"
               style="fill:#ffffff;fill-opacity:0.56862748"><path
                 d="m 0,0 -33.306,-69.643 c -2.634,-5.505 -8.172,-8.731 -13.947,-8.731 -2.21,0 -4.453,0.472 -6.582,1.468 -7.697,3.6 -10.985,12.691 -7.345,20.303 l 33.553,70.157 z"
                 style="fill:#ffffff;fill-opacity:0.56862748"
                 id="path98"
                 inkscape:connector-curvature="0" /></g><g
               id="g100"
               transform="translate(303.0347,456.8389)"
               style="fill:#ffffff;fill-opacity:0.56862748"><path
                 d="m 0,0 -33.306,-69.643 c -2.634,-5.505 -8.172,-8.731 -13.947,-8.731 -2.21,0 -4.453,0.472 -6.582,1.468 -7.697,3.6 -10.985,12.691 -7.345,20.303 l 33.553,70.157 z"
                 style="fill:#ffffff;fill-opacity:0.56862748"
                 id="path102"
                 inkscape:connector-curvature="0" /></g><g
               id="g104"
               transform="translate(249.5244,379.8018)"
               style="fill:#ffffff;fill-opacity:0.56862748"><path
                 d="m 0,0 c 2.033,-0.896 4.159,-1.337 6.257,-1.337 5.775,0 11.313,3.226 13.947,8.732 L 53.51,77.037 38.736,84.285 Z"
                 style="fill:#ffffff;fill-opacity:0.56862748"
                 id="path106"
                 inkscape:connector-curvature="0" /></g><g
               id="g108"
               transform="translate(249.5244,379.8018)"
               style="fill:#ffffff;fill-opacity:0.56862748;stroke:#ffffff;stroke-opacity:0"><path
                 d="m 0,0 c 2.033,-0.896 4.159,-1.337 6.257,-1.337 5.775,0 11.313,3.226 13.947,8.732 L 53.51,77.037 38.736,84.285 Z"
                 style="fill:#ffffff;fill-opacity:0.56862748;stroke:#ffffff;stroke-width:1;stroke-linecap:butt;stroke-linejoin:miter;stroke-miterlimit:10;stroke-dasharray:none;stroke-opacity:0"
                 id="path110"
                 inkscape:connector-curvature="0" /></g><g
               id="g112"
               style="fill:#ffffff;fill-opacity:0.56862748"><g
                 id="g114"
                 style="fill:#ffffff;fill-opacity:0.56862748" /><g
                 id="g130"
                 style="fill:#ffffff;fill-opacity:0.56862748"><g
                   clip-path="url(#clipPath118)"
                   id="g128"
                   style="opacity:0.25;fill:#ffffff;fill-opacity:0.56862748;stroke:#ffffff;stroke-opacity:0"><g
                     transform="translate(275.4077,470.3926)"
                     id="g122"
                     style="fill:#ffffff;fill-opacity:0.56862748"><path
                       d="m 0,0 -33.553,-70.157 c -3.64,-7.612 -0.352,-16.702 7.345,-20.303 0.107,-0.051 0.217,-0.083 0.325,-0.131 l 38.736,84.285 z"
                       style="fill:#ffffff;fill-opacity:0.56862748"
                       id="path120"
                       inkscape:connector-curvature="0" /></g><g
                     transform="translate(275.4077,470.3926)"
                     id="g126"
                     style="fill:#ffffff;fill-opacity:0.56862748"><path
                       d="m 0,0 -33.553,-70.157 c -3.64,-7.612 -0.352,-16.702 7.345,-20.303 0.107,-0.051 0.217,-0.083 0.325,-0.131 l 38.736,84.285 z"
                       style="fill:#ffffff;fill-opacity:0.56862748"
                       id="path124"
                       inkscape:connector-curvature="0" /></g></g></g></g><g
               id="g132"
               transform="translate(255.854,378.4668)"
               style="fill:#ffffff;fill-opacity:0.56862748"><path
                 d="m 0,0 c -4.685,0 -9.313,2.09 -12.354,6.059 -5.147,6.72 -3.795,16.282 3.021,21.358 32.437,24.152 61.137,23.847 79.501,19.337 20.495,-5.031 33.953,-16.533 37.588,-19.939 6.195,-5.799 6.446,-15.451 0.564,-21.555 C 102.434,-0.847 92.644,-1.092 86.454,4.704 80.907,9.896 51.128,34.222 9.31,3.082 6.52,1.005 3.246,0 0,0"
                 style="fill:#ffffff;fill-opacity:0.56862748"
                 id="path134"
                 inkscape:connector-curvature="0" /></g><g
               id="g136"
               transform="translate(255.854,378.4668)"
               style="fill:#ffffff;fill-opacity:0.56862748"><path
                 d="m 0,0 c -4.685,0 -9.313,2.09 -12.354,6.059 -5.147,6.72 -3.795,16.282 3.021,21.358 32.437,24.152 61.137,23.847 79.501,19.337 20.495,-5.031 33.953,-16.533 37.588,-19.939 6.195,-5.799 6.446,-15.451 0.564,-21.555 C 102.434,-0.847 92.644,-1.092 86.454,4.704 80.907,9.896 51.128,34.222 9.31,3.082 6.52,1.005 3.246,0 0,0 Z"
                 style="fill:#ffffff;fill-opacity:0.56862748"
                 id="path138"
                 inkscape:connector-curvature="0" /></g><g
               id="g140"
               style="fill:#ffffff;fill-opacity:0.56862748"><g
                 id="g142"
                 style="fill:#ffffff;fill-opacity:0.56862748" /><g
                 id="g158"
                 style="fill:#ffffff;fill-opacity:0.56862748"><g
                   clip-path="url(#clipPath146)"
                   id="g156"
                   style="opacity:0.5;fill:#ffffff;fill-opacity:0.56862748;stroke:#ffffff;stroke-opacity:0"><g
                     transform="translate(349.9414,379.2705)"
                     id="g150"
                     style="fill:#ffffff;fill-opacity:0.56862748"><path
                       d="m 0,0 c -2.774,0.542 -5.432,1.839 -7.634,3.9 -2.836,2.656 -12.009,10.314 -25.887,13 l -6.582,31.354 c 6.008,-0.254 11.441,-1.139 16.184,-2.303 4.877,-1.198 9.356,-2.762 13.398,-4.495 z"
                       style="fill:#ffffff;fill-opacity:0.56862748"
                       id="path148"
                       inkscape:connector-curvature="0" /></g><g
                     transform="translate(349.9414,379.2705)"
                     id="g154"
                     style="fill:#ffffff;fill-opacity:0.56862748"><path
                       d="m 0,0 c -2.774,0.542 -5.432,1.839 -7.634,3.9 -2.836,2.656 -12.009,10.314 -25.887,13 l -6.582,31.354 c 6.008,-0.254 11.441,-1.139 16.184,-2.303 4.877,-1.198 9.356,-2.762 13.398,-4.495 z"
                       style="fill:#ffffff;fill-opacity:0.56862748"
                       id="path152"
                       inkscape:connector-curvature="0" /></g></g></g></g><g
               id="g160"
               style="fill:#ffffff;fill-opacity:0.56862748;stroke:#ffffff;stroke-opacity:0"><g
                 id="g162"
                 style="fill:#ffffff;fill-opacity:0.56862748;stroke:#ffffff;stroke-opacity:0" /><g
                 id="g178"
                 style="fill:#ffffff;fill-opacity:0.56862748;stroke:#ffffff;stroke-opacity:0"><g
                   clip-path="url(#clipPath166)"
                   id="g176"
                   style="opacity:0.30000299;fill:#ffffff;fill-opacity:0.56862748;stroke:#ffffff;stroke-opacity:0"><g
                     transform="translate(255.854,378.4668)"
                     id="g170"
                     style="fill:#ffffff;fill-opacity:0.56862748;stroke:#ffffff;stroke-opacity:0"><path
                       d="m 0,0 c 3.246,0 6.52,1.005 9.31,3.082 41.818,31.14 71.597,6.814 77.144,1.622 6.19,-5.796 15.98,-5.551 21.866,0.556 0.838,0.869 1.536,1.816 2.126,2.807 C 47.334,60.096 -2.958,17.062 -13.099,7.141 -12.864,6.774 -12.623,6.411 -12.354,6.059 -9.313,2.09 -4.685,0 0,0"
                       style="fill:#ffffff;fill-opacity:0.56862748;fill-rule:nonzero;stroke:#ffffff;stroke-opacity:0"
                       id="path168"
                       inkscape:connector-curvature="0" /></g><g
                     transform="translate(255.854,378.4668)"
                     id="g174"
                     style="fill:#ffffff;fill-opacity:0.56862748;stroke:#ffffff;stroke-opacity:0"><path
                       d="m 0,0 c 3.246,0 6.52,1.005 9.31,3.082 41.818,31.14 71.597,6.814 77.144,1.622 6.19,-5.796 15.98,-5.551 21.866,0.556 0.838,0.869 1.536,1.816 2.126,2.807 C 47.334,60.096 -2.958,17.062 -13.099,7.141 -12.864,6.774 -12.623,6.411 -12.354,6.059 -9.313,2.09 -4.685,0 0,0 Z"
                       style="fill:#ffffff;fill-opacity:0.56862748;stroke:#ffffff;stroke-width:1;stroke-linecap:butt;stroke-linejoin:miter;stroke-miterlimit:10;stroke-dasharray:none;stroke-opacity:0"
                       id="path172"
                       inkscape:connector-curvature="0" /></g></g></g></g><g
               id="g180"
               transform="translate(367.0635,400.2358)"
               style="fill:#ffffff;fill-opacity:0.56862748"><path
                 d="m 0,0 -48.089,100.549 c -3.64,7.614 -12.833,10.865 -20.528,7.265 -7.697,-3.601 -10.985,-12.691 -7.344,-20.304 l 48.087,-100.55 c 2.635,-5.506 8.171,-8.731 13.948,-8.731 2.207,0 4.451,0.472 6.581,1.468 C 0.353,-16.703 3.641,-7.612 0,0"
                 style="fill:#ffffff;fill-opacity:0.56862748"
                 id="path182"
                 inkscape:connector-curvature="0" /></g><g
               id="g184"
               transform="translate(367.0635,400.2358)"
               style="fill:#ffffff;fill-opacity:0.56862748"><path
                 d="m 0,0 -48.089,100.549 c -3.64,7.614 -12.833,10.865 -20.528,7.265 -7.697,-3.601 -10.985,-12.691 -7.344,-20.304 l 48.087,-100.55 c 2.635,-5.506 8.171,-8.731 13.948,-8.731 2.207,0 4.451,0.472 6.581,1.468 C 0.353,-16.703 3.641,-7.612 0,0 Z"
                 style="fill:#ffffff;fill-opacity:0.56862748"
                 id="path186"
                 inkscape:connector-curvature="0" /></g><g
               id="g188"
               style="fill:#ffffff;fill-opacity:0.56862748;stroke:#ffffff;stroke-opacity:0"><g
                 id="g190"
                 style="fill:#ffffff;fill-opacity:0.56862748;stroke:#ffffff;stroke-opacity:0" /><g
                 id="g206"
                 style="fill:#ffffff;fill-opacity:0.56862748;stroke:#ffffff;stroke-opacity:0"><g
                   clip-path="url(#clipPath194)"
                   id="g204"
                   style="opacity:0.16000402;fill:#ffffff;fill-opacity:0.56862748;stroke:#ffffff;stroke-opacity:0"><g
                     transform="translate(367.0635,400.2358)"
                     id="g198"
                     style="fill:#ffffff;fill-opacity:0.56862748;stroke:#ffffff;stroke-opacity:0"><path
                       d="m 0,0 -48.089,100.549 c -3.64,7.614 -12.833,10.865 -20.528,7.265 L -7.459,-20.349 c 0.037,0.016 0.076,0.028 0.114,0.046 C 0.353,-16.703 3.641,-7.612 0,0"
                       style="fill:#ffffff;fill-opacity:0.56862748;fill-rule:nonzero;stroke:#ffffff;stroke-opacity:0"
                       id="path196"
                       inkscape:connector-curvature="0" /></g><g
                     transform="translate(367.0635,400.2358)"
                     id="g202"
                     style="fill:#ffffff;fill-opacity:0.56862748;stroke:#ffffff;stroke-opacity:0"><path
                       d="m 0,0 -48.089,100.549 c -3.64,7.614 -12.833,10.865 -20.528,7.265 L -7.459,-20.349 c 0.037,0.016 0.076,0.028 0.114,0.046 C 0.353,-16.703 3.641,-7.612 0,0 Z"
                       style="fill:#ffffff;fill-opacity:0.56862748;stroke:#ffffff;stroke-width:1;stroke-linecap:butt;stroke-linejoin:miter;stroke-miterlimit:10;stroke-dasharray:none;stroke-opacity:0"
                       id="path200"
                       inkscape:connector-curvature="0" /></g></g></g></g><g
               id="g228"
               transform="translate(275.4077,470.3926)"
               style="fill:#ffffff;fill-opacity:0.56862748"><path
                 d="m 0,0 14.535,30.393 c 3.641,7.613 12.834,10.863 20.53,7.264 7.696,-3.601 10.984,-12.691 7.343,-20.303 L 27.627,-13.554 Z"
                 style="fill:#ffffff;fill-opacity:0.56862748"
                 id="path230"
                 inkscape:connector-curvature="0" /></g><g
               id="g232"
               transform="translate(275.4077,470.3926)"
               style="fill:#ffffff;fill-opacity:0.56862748"><path
                 d="m 0,0 14.535,30.393 c 3.641,7.613 12.834,10.863 20.53,7.264 7.696,-3.601 10.984,-12.691 7.343,-20.303 L 27.627,-13.554 Z"
                 style="fill:#ffffff;fill-opacity:0.56862748"
                 id="path234"
                 inkscape:connector-curvature="0" /></g><g
               id="g236"
               transform="translate(310.4727,508.0498)"
               style="fill:#ffffff;fill-opacity:0.56862748"><path
                 d="m 0,0 c -0.56,0.261 -1.129,0.476 -1.701,0.667 l -20.511,-44.63 14.774,-7.248 14.781,30.907 C 10.984,-12.691 7.696,-3.601 0,0"
                 style="fill:#ffffff;fill-opacity:0.56862748"
                 id="path238"
                 inkscape:connector-curvature="0" /></g><g
               id="g240"
               transform="translate(310.4727,508.0498)"
               style="fill:#ffffff;fill-opacity:0.56862748"><path
                 d="m 0,0 c -0.56,0.261 -1.129,0.476 -1.701,0.667 l -20.511,-44.63 14.774,-7.248 14.781,30.907 C 10.984,-12.691 7.696,-3.601 0,0 Z"
                 style="fill:#ffffff;fill-opacity:0.56862748"
                 id="path242"
                 inkscape:connector-curvature="0" /></g><g
               id="g244"
               style="fill:#ffffff;fill-opacity:0.56862748;stroke:#ffffff;stroke-opacity:0"><g
                 id="g246"
                 style="fill:#ffffff;fill-opacity:0.56862748;stroke:#ffffff;stroke-opacity:0" /><g
                 id="g262"
                 style="fill:#ffffff;fill-opacity:0.56862748;stroke:#ffffff;stroke-opacity:0"><g
                   clip-path="url(#clipPath250)"
                   id="g260"
                   style="opacity:0.25;fill:#ffffff;fill-opacity:0.56862748;stroke:#ffffff;stroke-opacity:0"><g
                     transform="translate(289.9429,500.7852)"
                     id="g254"
                     style="fill:#ffffff;fill-opacity:0.56862748;stroke:#ffffff;stroke-opacity:0"><path
                       d="M 0,0 -14.535,-30.393 -1.682,-36.698 18.829,7.931 C 11.525,10.357 3.376,7.061 0,0"
                       style="fill:#ffffff;fill-opacity:0.56862748;fill-rule:nonzero;stroke:#ffffff;stroke-opacity:0"
                       id="path252"
                       inkscape:connector-curvature="0" /></g><g
                     transform="translate(289.9429,500.7852)"
                     id="g258"
                     style="fill:#ffffff;fill-opacity:0.56862748;stroke:#ffffff;stroke-opacity:0"><path
                       d="M 0,0 -14.535,-30.393 -1.682,-36.698 18.829,7.931 C 11.525,10.357 3.376,7.061 0,0 Z"
                       style="fill:#ffffff;fill-opacity:0.56862748;stroke:#ffffff;stroke-width:1;stroke-linecap:butt;stroke-linejoin:miter;stroke-miterlimit:10;stroke-dasharray:none;stroke-opacity:0"
                       id="path256"
                       inkscape:connector-curvature="0" /></g></g></g></g><g
               id="g264"
               transform="translate(315.291,542.2441)"
               style="fill:#ffffff;fill-opacity:0.56862748"><path
                 d="m 0,0 c -3.392,0.325 -6.831,0.491 -10.308,0.491 -58.486,0 -106.068,-47.06 -106.068,-104.905 0,-57.845 47.582,-104.905 106.068,-104.905 58.486,0 106.068,47.06 106.068,104.905 C 95.76,-50.008 53.668,-5.143 0,0 m -10.308,-233.716 c -72.088,0 -130.735,58.005 -130.735,129.302 0,71.297 58.647,129.302 130.735,129.302 72.088,0 130.735,-58.005 130.735,-129.302 0,-71.297 -58.647,-129.302 -130.735,-129.302"
                 style="fill:#ffffff;fill-opacity:0.56862748"
                 id="path266"
                 inkscape:connector-curvature="0" /></g><g
               id="g268"
               transform="translate(315.291,542.2441)"
               style="fill:#ffffff;fill-opacity:0.56862748"><path
                 d="m 0,0 c -3.392,0.325 -6.831,0.491 -10.308,0.491 -58.486,0 -106.068,-47.06 -106.068,-104.905 0,-57.845 47.582,-104.905 106.068,-104.905 58.486,0 106.068,47.06 106.068,104.905 C 95.76,-50.008 53.668,-5.143 0,0 m -10.308,-233.716 c -72.088,0 -130.735,58.005 -130.735,129.302 0,71.297 58.647,129.302 130.735,129.302 72.088,0 130.735,-58.005 130.735,-129.302 0,-71.297 -58.647,-129.302 -130.735,-129.302 z"
                 style="fill:#ffffff;fill-opacity:0.56862748"
                 id="path270"
                 inkscape:connector-curvature="0" /></g><g
               id="g272"
               style="fill:#ffffff;fill-opacity:0.56862748;stroke:#ffffff;stroke-opacity:0"><g
                 id="g274"
                 style="fill:#ffffff;fill-opacity:0.56862748;stroke:#ffffff;stroke-opacity:0" /><g
                 id="g290"
                 style="fill:#ffffff;fill-opacity:0.56862748;stroke:#ffffff;stroke-opacity:0"><g
                   clip-path="url(#clipPath278)"
                   id="g288"
                   style="opacity:0.22999603;fill:#ffffff;fill-opacity:0.56862748;stroke:#ffffff;stroke-opacity:0"><g
                     transform="translate(304.9829,320.7266)"
                     id="g282"
                     style="fill:#ffffff;fill-opacity:0.56862748;stroke:#ffffff;stroke-opacity:0"><path
                       d="m 0,0 c -65.392,0 -118.402,52.43 -118.402,117.104 0,64.674 53.01,117.103 118.402,117.103 65.391,0 118.402,-52.429 118.402,-117.103 C 118.402,52.43 65.391,0 0,0 m 0,246.405 c -72.088,0 -130.735,-58.004 -130.735,-129.301 0,-71.297 58.647,-129.302 130.735,-129.302 72.088,0 130.735,58.005 130.735,129.302 0,71.297 -58.647,129.301 -130.735,129.301"
                       style="fill:#ffffff;fill-opacity:0.56862748;fill-rule:nonzero;stroke:#ffffff;stroke-opacity:0"
                       id="path280"
                       inkscape:connector-curvature="0" /></g><g
                     transform="translate(304.9829,320.7266)"
                     id="g286"
                     style="fill:#ffffff;fill-opacity:0.56862748;stroke:#ffffff;stroke-opacity:0"><path
                       d="m 0,0 c -65.392,0 -118.402,52.43 -118.402,117.104 0,64.674 53.01,117.103 118.402,117.103 65.391,0 118.402,-52.429 118.402,-117.103 C 118.402,52.43 65.391,0 0,0 Z m 0,246.405 c -72.088,0 -130.735,-58.004 -130.735,-129.301 0,-71.297 58.647,-129.302 130.735,-129.302 72.088,0 130.735,58.005 130.735,129.302 0,71.297 -58.647,129.301 -130.735,129.301 z"
                       style="fill:#ffffff;fill-opacity:0.56862748;stroke:#000000;stroke-width:1;stroke-linecap:butt;stroke-linejoin:miter;stroke-miterlimit:10;stroke-dasharray:none;stroke-opacity:0"
                       id="path284"
                       inkscape:connector-curvature="0" /></g></g></g></g><g
               id="g292"
               transform="translate(119.7119,69.8926)"
               style="fill:#ffffff;fill-opacity:0.56862748"><path
                 d="M 0,0 C -0.887,-1.32 -0.225,-1.062 -0.29,-1.303 1.063,0.986 -0.128,0.002 0,0"
                 style="fill:#ffffff;fill-opacity:0.56862748;fill-rule:nonzero;stroke:none"
                 id="path294"
                 inkscape:connector-curvature="0" /></g><g
               id="g296"
               transform="translate(133.0679,92.4961)"
               style="fill:#ffffff;fill-opacity:0.56862748"><path
                 d="m 0,0 -0.114,-0.48 1.79,3.453 z"
                 style="fill:#ffffff;fill-opacity:0.56862748;fill-rule:nonzero;stroke:none"
                 id="path298"
                 inkscape:connector-curvature="0" /></g><g
               id="g300"
               transform="translate(146.6729,112.9238)"
               style="fill:#ffffff;fill-opacity:0.56862748"><path
                 d="m 0,0 c -1.919,-1.504 -4.836,-7.466 -7.476,-10.96 l -0.534,-0.511 -0.613,-1.961 C -5.75,-8.962 -2.279,-2.977 0,0"
                 style="fill:#ffffff;fill-opacity:0.56862748;fill-rule:nonzero;stroke:none"
                 id="path302"
                 inkscape:connector-curvature="0" /></g><g
               id="g304"
               transform="translate(155.3745,122.8154)"
               style="fill:#ffffff;fill-opacity:0.56862748"><path
                 d="m 0,0 c -0.687,-0.506 1.409,2.464 -1.803,-2.459 0.198,0.221 0.256,0.285 0.372,0.414 C -1.128,-1.611 -0.71,-1.015 0,0"
                 style="fill:#ffffff;fill-opacity:0.56862748"
                 id="path306"
                 inkscape:connector-curvature="0" /></g><g
               id="g308"
               transform="translate(153.9434,120.7705)"
               style="fill:#ffffff;fill-opacity:0.56862748"><path
                 d="M 0,0 C -1.45,-2.137 1.151,1.258 0,0"
                 style="fill:#ffffff;fill-opacity:0.56862748"
                 id="path310"
                 inkscape:connector-curvature="0" /></g><g
               id="g312"
               transform="translate(160.5845,130.6758)"
               style="fill:#ffffff;fill-opacity:0.56862748"><path
                 d="M 0,0 -1.729,-2.941 C -1.19,-2.45 0.559,0.019 0.018,-0.975 1.891,1.972 1.357,1.471 0,0"
                 style="fill:#ffffff;fill-opacity:0.56862748"
                 id="path314"
                 inkscape:connector-curvature="0" /></g><g
               id="g316"
               transform="translate(162.022,133.6084)"
               style="fill:#ffffff;fill-opacity:0.56862748"><path
                 d="M 0,0 -0.941,-1.494 C -0.705,-1.282 -0.414,-0.917 0,0"
                 style="fill:#ffffff;fill-opacity:0.56862748"
                 id="path318"
                 inkscape:connector-curvature="0" /></g><g
               id="g320"
               transform="translate(159.1328,128.9141)"
               style="fill:#ffffff;fill-opacity:0.56862748"><path
                 d="M 0,0 1.948,3.2 C 1.564,2.867 1.35,2.955 1.032,1.746 1.033,2.119 0.779,1.394 0,0"
                 style="fill:#ffffff;fill-opacity:0.56862748"
                 id="path322"
                 inkscape:connector-curvature="0" /></g><g
               id="g324"
               transform="translate(157.8413,127.2344)"
               style="fill:#ffffff;fill-opacity:0.56862748"><path
                 d="M 0,0 C -1.211,-1.481 -2.692,-3.456 -0.955,-0.504 -4.572,-5.918 -3.614,-5.413 0,0"
                 style="fill:#ffffff;fill-opacity:0.56862748"
                 id="path326"
                 inkscape:connector-curvature="0" /></g><g
               id="g328"
               transform="translate(146.7739,114.3701)"
               style="fill:#ffffff;fill-opacity:0.56862748"><path
                 d="M 0,0 -1.624,-1.985 -2.651,-3.959 C -2.156,-2.961 0.273,0.006 0,0"
                 style="fill:#ffffff;fill-opacity:0.56862748"
                 id="path330"
                 inkscape:connector-curvature="0" /></g><g
               id="g332"
               transform="translate(173.2129,147.6895)"
               style="fill:#ffffff;fill-opacity:0.56862748"><path
                 d="M 0,0 C 0,0.262 -0.994,-0.691 -1.299,-0.784 L -2.622,-2.928 C -1.785,-1.939 -0.282,-0.007 0,0"
                 style="fill:#ffffff;fill-opacity:0.56862748"
                 id="path334"
                 inkscape:connector-curvature="0" /></g><g
               id="g336"
               transform="translate(171.9136,146.9053)"
               style="fill:#ffffff;fill-opacity:0.56862748"><path
                 d="M 0,0 1.979,3.209 C -0.002,0.497 -0.26,-0.074 0,0"
                 style="fill:#ffffff;fill-opacity:0.56862748"
                 id="path338"
                 inkscape:connector-curvature="0" /></g><g
               id="g340"
               transform="translate(161.728,134.5586)"
               style="fill:#ffffff;fill-opacity:0.56862748"><path
                 d="m 0,0 c -1.062,-1.772 -2.088,-3.568 -3.102,-5.373 1.23,2.138 2.501,4.247 3.79,6.346 z"
                 style="fill:#ffffff;fill-opacity:0.56862748"
                 id="path342"
                 inkscape:connector-curvature="0" /></g><g
               id="g344"
               transform="translate(181.73,159.2402)"
               style="fill:#ffffff;fill-opacity:0.56862748"><path
                 d="M 0,0 -0.99,-1.918 0.85,1.441 Z"
                 style="fill:#ffffff;fill-opacity:0.56862748"
                 id="path346"
                 inkscape:connector-curvature="0" /></g><g
               id="g348"
               transform="translate(197.90049,168.30232)"
               style="fill:#ffffff;fill-opacity:0.56862748"><path
                 d="M 0,0 C -0.709,-1.438 1.684,1.437 0.832,-0.007 2.344,2.09 3.431,4.035 4.484,5.731 3.277,3.996 1.94,2.186 0,0"
                 style="fill:#ffffff;fill-opacity:0.56862748"
                 id="path350"
                 inkscape:connector-curvature="0" /></g><g
               id="g352"
               transform="translate(204.16709,176.87262)"
               style="fill:#ffffff;fill-opacity:0.56862748"><path
                 d="M 0,0 C -0.59,-0.877 -1.16,-1.817 -1.782,-2.839 -1.149,-1.911 -0.551,-0.979 0,0"
                 style="fill:#ffffff;fill-opacity:0.56862748"
                 id="path354"
                 inkscape:connector-curvature="0" /></g><g
               id="g356"
               transform="translate(177.7437,155.2324)"
               style="fill:#ffffff;fill-opacity:0.56862748"><path
                 d="M 0,0 C 0.248,0.18 0.775,0.486 2.116,2.116 L 0.889,1.184 C 0.618,0.823 0.311,0.415 0,0"
                 style="fill:#ffffff;fill-opacity:0.56862748"
                 id="path358"
                 inkscape:connector-curvature="0" /></g><g
               id="g360"
               transform="translate(178.5908,156.3828)"
               style="fill:#ffffff;fill-opacity:0.56862748"><path
                 d="M 0,0 0.042,0.033 C 1.01,1.313 1.682,2.201 1.97,2.582 1.721,2.256 1.128,1.479 0,0"
                 style="fill:#ffffff;fill-opacity:0.56862748"
                 id="path362"
                 inkscape:connector-curvature="0" /></g><g
               id="g364"
               transform="translate(177.5195,154.9346)"
               style="fill:#ffffff;fill-opacity:0.56862748"><path
                 d="M 0,0 C 0.082,0.11 0.143,0.19 0.224,0.298 0.105,0.209 0.042,0.148 0,0"
                 style="fill:#ffffff;fill-opacity:0.56862748"
                 id="path366"
                 inkscape:connector-curvature="0" /></g><g
               id="g368"
               transform="translate(167.7891,142.3486)"
               style="fill:#ffffff;fill-opacity:0.56862748"><path
                 d="M 0,0 C 1.093,1.936 3.571,5.832 0.677,2.419 -0.01,0.96 1.646,2.913 0,0"
                 style="fill:#ffffff;fill-opacity:0.56862748"
                 id="path370"
                 inkscape:connector-curvature="0" /></g><g
               id="g372"
               transform="translate(175.9917,153.7783)"
               style="fill:#ffffff;fill-opacity:0.56862748"><path
                 d="m 0,0 c -0.829,-1.044 -1.634,-2.105 -2.433,-3.171 0.138,-0.003 0.69,0.486 0.148,-0.474 C -1.534,-2.422 -0.783,-1.2 0,0"
                 style="fill:#ffffff;fill-opacity:0.56862748"
                 id="path374"
                 inkscape:connector-curvature="0" /></g><g
               id="g376"
               transform="translate(177.0508,155.4268)"
               style="fill:#ffffff;fill-opacity:0.56862748"><path
                 d="m 0,0 -1.059,-1.648 0.913,1.166 z"
                 style="fill:#ffffff;fill-opacity:0.56862748"
                 id="path378"
                 inkscape:connector-curvature="0" /></g><g
               id="g380"
               transform="translate(199.69249,171.68422)"
               style="fill:#ffffff;fill-opacity:0.56862748"><path
                 d="M 0,0 C 0.87,1.505 2.022,3 3.302,4.704 1.83,2.954 0.355,1.107 -0.972,-0.702 -1.054,-1.037 -1.45,-1.973 0,0"
                 style="fill:#ffffff;fill-opacity:0.56862748"
                 id="path382"
                 inkscape:connector-curvature="0" /></g><g
               id="g384"
               transform="translate(194.52749,164.94782)"
               style="fill:#ffffff;fill-opacity:0.56862748"><path
                 d="M 0,0 C 0.065,0.1 0.148,0.228 0.209,0.321 0.04,0.154 -0.083,0.01 0,0"
                 style="fill:#ffffff;fill-opacity:0.56862748"
                 id="path386"
                 inkscape:connector-curvature="0" /></g><g
               id="g388"
               transform="translate(215.83949,192.98402)"
               style="fill:#ffffff;fill-opacity:0.56862748"><path
                 d="m 0,0 c -0.093,-0.075 -0.174,-0.141 -0.269,-0.217 0.003,-0.036 0.011,-0.065 0.01,-0.107 z"
                 style="fill:#ffffff;fill-opacity:0.56862748"
                 id="path390"
                 inkscape:connector-curvature="0" /></g><g
               id="g392"
               transform="translate(198.42829,170.72232)"
               style="fill:#ffffff;fill-opacity:0.56862748"><path
                 d="m 0,0 c -1.092,-1.327 -1.622,-2.214 -2.101,-3.077 0.733,1.056 1.524,2.164 2.393,3.337 C 0.329,0.411 0.313,0.456 0,0"
                 style="fill:#ffffff;fill-opacity:0.56862748"
                 id="path394"
                 inkscape:connector-curvature="0" /></g><g
               id="g396"
               transform="translate(207.58999,181.62362)"
               style="fill:#ffffff;fill-opacity:0.56862748"><path
                 d="M 0,0 C -0.618,-0.652 -1.298,-1.409 -2.006,-2.209 -1.363,-1.6 -0.105,-0.318 0,0"
                 style="fill:#ffffff;fill-opacity:0.56862748"
                 id="path398"
                 inkscape:connector-curvature="0" /></g><g
               id="g400"
               transform="translate(195.17689,165.66272)"
               style="fill:#ffffff;fill-opacity:0.56862748"><path
                 d="M 0,0 C -0.046,-0.072 -0.088,-0.139 -0.138,-0.217 0.271,0.18 0.194,0.15 0,0"
                 style="fill:#ffffff;fill-opacity:0.56862748"
                 id="path402"
                 inkscape:connector-curvature="0" /></g><g
               id="g404"
               transform="translate(195.17689,165.66272)"
               style="fill:#ffffff;fill-opacity:0.56862748"><path
                 d="M 0,0 C 0.479,0.746 0.809,1.366 1.151,1.982 0.554,1.124 0.011,0.318 -0.44,-0.394 -0.289,-0.241 -0.125,-0.098 0,0"
                 style="fill:#ffffff;fill-opacity:0.56862748"
                 id="path406"
                 inkscape:connector-curvature="0" /></g><g
               id="g408"
               transform="translate(217.67639,199.64902)"
               style="fill:#ffffff;fill-opacity:0.56862748"><path
                 d="m 0,0 c 0.134,-0.495 -2.458,-4.21 -5.173,-7.041 -2.117,-3.223 0.447,-2.037 3.067,0.159 -0.064,0.202 -0.19,0.301 2.101,3.524 -0.514,-0.475 -1.999,-2.093 -3.097,-3.267 -1.093,-1.178 -1.84,-1.879 -0.961,-0.449 3.072,4.242 2.783,3.265 4.531,5.126 -1.742,-1.379 3.609,5.638 2.329,5.204 L 0.12,-0.483 C -0.022,-0.48 0.88,0.93 0,0"
                 style="fill:#ffffff;fill-opacity:0.56862748"
                 id="path410"
                 inkscape:connector-curvature="0" /></g><g
               id="g412"
               transform="translate(210.93709,186.84432)"
               style="fill:#ffffff;fill-opacity:0.56862748"><path
                 d="m 0,0 -0.955,-1.315 c 1.187,1.421 2.123,2.374 3.86,4.111 1.5,2.256 1.728,2.791 1.738,3.019 l -4.936,-6.292 z"
                 style="fill:#ffffff;fill-opacity:0.56862748"
                 id="path414"
                 inkscape:connector-curvature="0" /></g><g
               id="g416"
               transform="translate(205.52159,179.76032)"
               style="fill:#ffffff;fill-opacity:0.56862748"><path
                 d="m 0,0 c 0.434,1.266 2.677,4.465 0.845,2.859 -2.895,-3.791 -1.76,-2.863 -3.354,-5.23 4.623,6.15 -1.162,-1.894 2.433,2.354 -0.866,-1.24 -1.68,-2.329 -2.451,-3.355 0.889,1.064 1.757,2.081 2.589,3.026 -0.05,-0.049 -0.086,-0.083 -0.128,-0.123 l -0.021,-0.029 -0.001,0.01 c -0.245,-0.229 -0.338,-0.296 -0.085,-0.019 0.011,0.024 0.067,0.099 0.091,0.132 -0.016,0.078 0.03,0.223 0.084,0.374 1.433,1.707 0.303,0.209 -0.084,-0.374 0.001,-0.033 -0.02,-0.093 -0.006,-0.113 l 0.022,0.019 4.526,6.238 C 3.416,4.516 2.176,2.894 0,0"
                 style="fill:#ffffff;fill-opacity:0.56862748"
                 id="path418"
                 inkscape:connector-curvature="0" /></g><g
               id="g420"
               transform="translate(170.1118,148.6543)"
               style="fill:#ffffff;fill-opacity:0.56862748"><path
                 d="M 0,0 C 0.17,0.173 0.189,0.146 0.225,0.143 0.473,0.579 0.554,0.754 0,0"
                 style="fill:#ffffff;fill-opacity:0.56862748"
                 id="path422"
                 inkscape:connector-curvature="0" /></g><g
               id="g424"
               transform="translate(172.1719,151.082)"
               style="fill:#ffffff;fill-opacity:0.56862748"><path
                 d="m 0,0 c -0.278,-0.492 -0.411,-0.973 -1.509,-2.429 -1.027,-1.209 -0.163,0.128 -0.326,0.144 -0.548,-0.961 -1.991,-3.307 0.187,-0.63 l 0.27,0.478 C 0.544,0.006 3.317,2.919 3.057,2.438 2.198,1.944 1.511,1.456 0,0"
                 style="fill:#ffffff;fill-opacity:0.56862748"
                 id="path426"
                 inkscape:connector-curvature="0" /></g><g
               id="g428"
               transform="translate(194.08749,166.42932)"
               style="fill:#ffffff;fill-opacity:0.56862748"><path
                 d="M 0,0 3.666,5.277 1.415,2.878 1.693,2.876 C -0.559,0 0.133,0.467 0,0"
                 style="fill:#ffffff;fill-opacity:0.56862748"
                 id="path430"
                 inkscape:connector-curvature="0" /></g><g
               id="g432"
               transform="translate(216.46739,193.42342)"
               style="fill:#ffffff;fill-opacity:0.56862748"><path
                 d="M 0,0 -0.175,-0.945 1.641,2.341 Z"
                 style="fill:#ffffff;fill-opacity:0.56862748"
                 id="path434"
                 inkscape:connector-curvature="0" /></g><g
               id="g436"
               transform="translate(221.64609,199.95472)"
               style="fill:#ffffff;fill-opacity:0.56862748"><path
                 d="M 0,0 0.116,-0.487 1.308,1.376 Z"
                 style="fill:#ffffff;fill-opacity:0.56862748"
                 id="path438"
                 inkscape:connector-curvature="0" /></g><g
               id="g440"
               transform="translate(370.4785,483.998)"
               style="fill:#ffffff;fill-opacity:0.56862748"><path
                 d="M 0,0 -1.885,-0.116 C -0.992,-0.08 -0.419,-0.041 0,0"
                 style="fill:#ffffff;fill-opacity:0.56862748"
                 id="path442"
                 inkscape:connector-curvature="0" /></g><g
               id="g444"
               transform="translate(384.127,483.9946)"
               style="fill:#ffffff;fill-opacity:0.56862748"><path
                 d="M 0,0 0.336,0.195 C -0.297,0.087 -0.557,0.007 0,0"
                 style="fill:#ffffff;fill-opacity:0.56862748"
                 id="path446"
                 inkscape:connector-curvature="0" /></g><g
               id="g448"
               transform="translate(351.292,347.4004)"
               style="fill:#ffffff;fill-opacity:0.56862748"><path
                 d="M 0,0 C 2.259,1.592 4.988,3.131 4.431,3.261 L 3.508,3.031 C 2.108,1.721 0.979,0.777 0,0"
                 style="fill:#ffffff;fill-opacity:0.56862748"
                 id="path450"
                 inkscape:connector-curvature="0" /></g><g
               id="g452"
               transform="translate(446.0986,450.147)"
               style="fill:#ffffff;fill-opacity:0.56862748"><path
                 d="M 0,0 C -0.159,-0.211 -0.325,-0.431 -0.49,-0.648 -0.67,-1.312 -0.84,-1.935 -0.991,-2.493 -0.693,-1.743 -0.354,-0.893 0,0"
                 style="fill:#ffffff;fill-opacity:0.56862748"
                 id="path454"
                 inkscape:connector-curvature="0" /></g><g
               id="g456"
               transform="translate(445.4092,452.6929)"
               style="fill:#ffffff;fill-opacity:0.56862748"><path
                 d="M 0,0 1.919,3.047 C 1.455,2.376 0.835,1.397 0,0"
                 style="fill:#ffffff;fill-opacity:0.56862748"
                 id="path458"
                 inkscape:connector-curvature="0" /></g><g
               id="g460"
               transform="translate(296.0117,481.1558)"
               style="fill:#ffffff;fill-opacity:0.56862748"><path
                 d="M 0,0 -2.169,-0.562 C 1.265,-0.371 -0.26,-0.231 0,0"
                 style="fill:#ffffff;fill-opacity:0.56862748"
                 id="path462"
                 inkscape:connector-curvature="0" /></g><g
               id="g464"
               transform="matrix(1.8745067,0,0,2.247737,236.14015,221.05496)"
               style="fill:#ffffff;fill-opacity:0.56862748"><path
                 d="M 0,0 C 1.7,1.655 3.044,2.979 4.195,4.171 2.047,2.271 0.236,0.806 0,0"
                 style="fill:#ffffff;fill-opacity:0.56862748"
                 id="path466"
                 inkscape:connector-curvature="0" /></g><g
               id="g468"
               transform="translate(375.8418,488.6113)"
               style="fill:#ffffff;fill-opacity:0.56862748"><path
                 d="M 0,0 C -1.157,-0.081 -1.651,-0.17 -1.617,-0.267 -0.426,-0.19 0.248,-0.106 0,0"
                 style="fill:#ffffff;fill-opacity:0.56862748"
                 id="path470"
                 inkscape:connector-curvature="0" /></g><g
               id="g472"
               transform="matrix(1.8745067,0,0,2.247737,252.77076,241.65097)"
               style="fill:#ffffff;fill-opacity:0.56862748"><path
                 d="M 0,0 C -0.311,-0.281 -0.615,-0.557 -0.931,-0.844 -2.062,-2.156 -3.21,-3.468 -4.677,-4.992 -3.1,-3.58 -1.366,-1.897 0,0"
                 style="fill:#ffffff;fill-opacity:0.56862748"
                 id="path474"
                 inkscape:connector-curvature="0" /></g><g
               id="g476"
               transform="translate(261.6255,561.3467)"
               style="fill:#ffffff;fill-opacity:0.56862748"><path
                 d="M 0,0 C 0.159,0.118 0.349,0.26 0.494,0.367 0.5,0.45 0.293,0.272 0,0"
                 style="fill:#ffffff;fill-opacity:0.56862748"
                 id="path478"
                 inkscape:connector-curvature="0" /></g><g
               id="g480"
               transform="translate(323.6562,610.2881)"
               style="fill:#ffffff;fill-opacity:0.56862748"><path
                 d="M 0,0 C -0.564,-0.534 -1.514,-1.374 -2.406,-2.169 -1.95,-1.806 -1.22,-1.157 0,0"
                 style="fill:#ffffff;fill-opacity:0.56862748"
                 id="path482"
                 inkscape:connector-curvature="0" /></g><g
               id="g484"
               transform="translate(243.06359,225.75942)"
               style="fill:#ffffff;fill-opacity:0.56862748"><path
                 d="M 0,0 C -1.111,-1.375 -0.143,-0.246 0,0"
                 style="fill:#ffffff;fill-opacity:0.56862748"
                 id="path486"
                 inkscape:connector-curvature="0" /></g><g
               id="g488"
               transform="translate(236.23499,220.25742)"
               style="fill:#ffffff;fill-opacity:0.56862748"><path
                 d="M 0,0 C 0.204,0.32 0.339,0.58 0.291,0.678 0.278,0.499 0.171,0.268 0,0"
                 style="fill:#ffffff;fill-opacity:0.56862748"
                 id="path490"
                 inkscape:connector-curvature="0" /></g><g
               id="g492"
               transform="matrix(1.8745067,0,0,2.247737,271.78595,274.62303)"
               style="fill:#ffffff;fill-opacity:0.56862748"><path
                 d="M 0,0 C 0.037,0.037 0.066,0.066 0.108,0.108 -0.321,-0.21 -0.246,-0.156 0,0"
                 style="fill:#ffffff;fill-opacity:0.56862748"
                 id="path494"
                 inkscape:connector-curvature="0" /></g><g
               id="g496"
               transform="translate(241.20759,223.84432)"
               style="fill:#ffffff;fill-opacity:0.56862748"><path
                 d="M 0,0 C 0.466,0.476 0.99,1.034 1.548,1.653 1.288,1.395 0.815,0.894 0,0"
                 style="fill:#ffffff;fill-opacity:0.56862748"
                 id="path498"
                 inkscape:connector-curvature="0" /></g><g
               id="g500"
               transform="translate(241.59429,223.98792)"
               style="fill:#ffffff;fill-opacity:0.56862748"><path
                 d="M 0,0 C -0.403,-0.458 -0.72,-0.816 -1.022,-1.159 -1.11,-1.377 -0.949,-1.255 0,0"
                 style="fill:#ffffff;fill-opacity:0.56862748"
                 id="path502"
                 inkscape:connector-curvature="0" /></g><g
               id="g504"
               transform="translate(244.62359,227.66462)"
               style="fill:#ffffff;fill-opacity:0.56862748"><path
                 d="m 0,0 c -0.643,-0.78 -1.263,-1.49 -1.868,-2.167 0.244,0.247 0.357,0.343 0.308,0.262 C -1.232,-1.504 -0.768,-0.937 0,0"
                 style="fill:#ffffff;fill-opacity:0.56862748"
                 id="path506"
                 inkscape:connector-curvature="0" /></g><g
               id="g508"
               transform="translate(169.8232,469.5669)"
               style="fill:#ffffff;fill-opacity:0.56862748"><path
                 d="M 0,0 C -0.144,-0.009 -0.309,-0.019 -0.467,-0.028 -3.026,-0.59 -1.946,-0.4 0,0"
                 style="fill:#ffffff;fill-opacity:0.56862748"
                 id="path510"
                 inkscape:connector-curvature="0" /></g><g
               id="g512"
               transform="translate(383.1504,380.9717)"
               style="fill:#ffffff;fill-opacity:0.56862748"><path
                 d="m 0,0 c -0.057,-0.061 -0.087,-0.093 -0.139,-0.148 0.067,0.05 0.149,0.114 0.208,0.16 z"
                 style="fill:#ffffff;fill-opacity:0.56862748"
                 id="path514"
                 inkscape:connector-curvature="0" /></g><g
               id="g516"
               transform="translate(387.7295,385.377)"
               style="fill:#ffffff;fill-opacity:0.56862748"><path
                 d="m 0,0 c -1.684,-2.178 -2.89,-3.137 -4.51,-4.394 l 2.406,0.434 z"
                 style="fill:#ffffff;fill-opacity:0.56862748"
                 id="path518"
                 inkscape:connector-curvature="0" /></g><g
               id="g520"
               transform="translate(171.2861,475.6826)"
               style="fill:#ffffff;fill-opacity:0.56862748;stroke:#ffffff;stroke-opacity:0.49707606"><path
                 d="M 0,0 -0.635,-0.392 C 0.242,0.567 0.098,0.272 0,0 m 69.475,-240.728 c -0.343,-0.498 -0.265,-0.51 -0.047,-0.363 0.18,0.396 1.055,1.416 2.083,2.549 -0.374,-0.238 -0.947,-0.766 -2.036,-2.186 m 4.079,4.382 c 0.029,0.048 0.049,0.08 0.072,0.119 2.029,2.053 1.304,1.33 -0.072,-0.119 m 195.568,202.788 c 0.359,0.902 1.19,2.123 2.212,3.46 -0.593,-1.056 -1.319,-2.223 -2.212,-3.46 M 233.17,8.289 c -1.294,-0.062 -3.874,-0.362 -4.814,-0.061 1.481,0.53 2.615,0.27 4.814,0.061 M 166.522,7.624 170.99,7.36 c -5.362,-0.794 -9.257,-0.682 -5.059,-1.112 0.295,0.688 4.625,0.845 8.952,1.002 4.329,0.141 8.657,0.21 8.956,0.903 l 2.944,-0.242 c -0.842,0.001 -0.975,-0.081 -1.808,-0.08 5.724,-0.574 4.233,1.066 11.605,0.942 2.569,-0.1 4.362,-0.294 2.612,-0.458 l 5.721,0.346 c 1.665,-0.023 1.258,-0.26 -0.399,-0.237 l 8.727,0.123 -0.064,-0.04 c 1.245,0.212 4.069,0.499 5.449,0.626 2.217,-0.22 -1.113,-0.131 -0.548,-0.307 l 4.838,0.273 c 1.965,-0.374 -2.045,-0.669 -5.382,-0.58 4.499,-1.409 4.014,0.295 13.74,-0.61 L 226.711,7.79 c 2.929,-0.796 6.491,-0.56 11.633,-1.187 -1.214,0.291 -10.295,1.45 -5.047,1.674 1.475,-0.139 3.421,-0.236 6.256,-0.033 0.015,-0.484 2.778,-0.434 6.235,-0.492 l -0.254,-0.634 c 3.739,0.09 3.454,0.429 5.661,0.654 4.16,-0.222 5.006,-0.75 5.97,-1.205 6.658,-0.356 -4.572,0.97 3.319,0.789 5.535,-0.453 9.436,-0.324 16.083,-0.308 3.868,-0.42 -0.698,-0.356 0.684,-0.61 l 3.464,0.333 c 0.841,-0.056 0.56,-0.199 0.419,-0.271 1.453,0.025 1.521,0.181 1.797,0.324 0.384,0.137 0.535,0.283 2.069,0.292 0.32,0.159 0.876,0.155 1.502,0.071 0.126,0.024 0.053,-0.096 0.019,-0.189 -0.039,-0.094 -0.077,-0.191 -0.117,-0.291 -0.081,-0.196 -0.167,-0.401 -0.256,-0.616 -0.172,-0.393 -0.36,-0.819 -0.557,-1.266 -0.089,-0.2 -0.181,-0.404 -0.275,-0.612 -0.1,-0.237 -0.257,-0.674 -0.382,-1.009 -0.265,-0.721 -0.523,-1.458 -0.761,-2.2 -0.245,-0.739 -0.444,-1.491 -0.656,-2.218 -0.234,-0.719 -0.432,-1.429 -0.58,-2.118 -0.65,-1.23 -0.14,0.753 -0.52,0.44 -2.181,-7.343 -1.801,-6.316 -3.765,-12.34 -0.877,-1.573 -1.681,-3.174 -2.61,-4.71 1.087,1.662 1.183,1.318 0.862,0.001 -0.383,-1.287 -1.259,-3.511 -2.092,-5.595 0.863,1.141 1.606,2.119 2.071,2.796 l -3.033,-6.482 c -0.553,-0.679 -0.32,0.019 -0.029,1.194 -0.178,-0.457 -0.345,-0.892 -0.498,-1.219 -1.528,-2.063 -1.15,-0.747 -0.536,0.991 0.519,0.699 1.034,1.395 1.535,2.072 0.476,1.74 0.854,3.383 0.352,3.233 -0.148,-0.44 -0.503,-1.251 -0.924,-2.129 0.12,0.454 0.172,0.756 0.018,0.599 -0.171,-0.18 -0.388,-0.897 -0.783,-1.998 l -1.368,-1.07 c 0.025,-0.162 0.041,-0.32 0.055,-0.477 l -5.145,-7.645 c -1.558,-2.908 -2.908,-5.725 -4.653,-8.887 -0.927,-1.542 -1.941,-3.177 -3.111,-4.965 -0.589,-0.891 -1.197,-1.835 -1.888,-2.796 -0.712,-0.944 -1.474,-1.931 -2.292,-2.97 1.276,2.345 -0.299,0.975 -0.685,1.479 1.17,0.893 2.452,2.481 3.738,4.462 1.302,1.971 2.812,4.179 4.436,6.353 -1.698,-2.269 -1.611,-1.559 -1.243,-0.937 -1.806,-2.67 -3.551,-5.398 -5.42,-8.044 -0.255,0.486 -1.616,-1.341 -3.397,-3.148 0.997,0.412 -0.033,-1.082 -1.604,-3.087 -1.624,-1.959 -3.848,-4.372 -5.059,-5.947 -0.412,0.047 -0.028,0.982 3.266,4.497 -4.129,-3.42 -3.705,-5.931 -7.851,-9.222 0.815,0.852 1.296,1.273 1.497,1.725 -0.851,-1.091 -2.494,-2.805 -3.811,-4.077 -1.304,-1.286 -2.357,-2.053 -1.881,-1.408 l 0.837,0.827 c -2.824,-2.714 -7.119,-6.844 -10.817,-10.399 -1.832,-1.797 -3.522,-3.445 -4.781,-4.724 -1.252,-1.288 -2.054,-2.226 -2.132,-2.581 -0.131,0.031 0.088,1.453 0.326,1.896 -2.827,-3.835 -5.759,-7.595 -8.67,-11.39 0.456,1.363 -4.261,-0.419 0.394,4.155 -1.473,-1.152 -3.313,-2.562 -6.143,-5.323 1.038,0.751 3.105,1.268 1.823,0.082 -4.169,-2.496 -2.805,-1.833 -7.753,-5.138 1.56,1.124 0.683,-1.129 -1.643,-3.065 0.248,0.438 -0.927,0.697 -0.161,1.505 -1.676,-1.903 -3.314,-3.861 -4.966,-5.791 1.285,1.39 -0.371,0.941 -1.852,0.07 0.735,0.349 -4.93,-4.273 -6.373,-5.679 l 2.582,1.906 c -3.265,-2.736 -4.59,-4.417 -5.895,-6.1 -1.319,-1.67 -2.583,-3.381 -5.719,-6.205 0.6,0.86 0.914,2.763 -2.361,-0.023 -1.074,-1.755 -4.586,-7.916 -9.797,-13.254 l -1.264,-0.742 -3.896,-4.209 c 1.005,1.529 2.974,4.388 5.214,7.316 2.244,2.923 4.682,5.996 6.469,8.101 -2.534,-1.952 -0.918,-0.311 -4.431,-3.546 -1.457,-0.908 1.61,2.097 2.637,3.057 l -8.353,-7.352 c 0.816,-0.153 -5.715,-6.342 -5.023,-6.457 2.779,2.918 5.487,5.916 8.335,8.766 0.415,-0.089 -0.575,-1.59 -2.349,-3.778 -1.768,-2.195 -4.359,-5.034 -7.255,-7.696 -1.637,-1.183 0.264,1.898 -0.008,1.949 -0.583,-0.871 -5.122,-5.461 -5.761,-5.84 l 2.178,2.558 c -3.343,-2.852 -4.62,-5.52 -8.793,-8.782 -1.323,-1.245 -4.473,-3.195 -4.418,-3.7 2.651,1.537 4.719,0.244 3.719,-1.552 -0.489,-0.408 -7.297,-6.165 -9.041,-7.354 -2.555,-1.675 2.184,4.168 0.007,2.746 0.051,-0.207 -0.966,-1.528 -1.405,-2.063 -1.47,-1.231 0.16,0.957 -2.735,-2.016 -0.005,-0.97 -5.932,-5.999 -0.963,-1.807 -2.693,-3.041 -3.108,-2.989 -6.413,-6.421 1.373,0.777 -1.911,-4.11 -4.603,-7.15 0.042,0.292 -0.756,-0.204 -1.139,-0.449 -2.921,-2.954 -5.166,-5.225 -7.362,-7.445 -2.197,-2.219 -4.342,-4.393 -6.994,-7.218 -0.609,-0.408 -3.314,-3.002 -2.44,-1.641 -0.673,-0.896 -1.208,-1.797 -2.824,-3.558 -1.765,-1.521 -0.894,-0.511 0.069,0.6 0.978,1.099 2.04,2.308 0.573,1.261 0.057,-0.464 -3.761,-4.945 -5.859,-7.639 1.171,0.351 5.314,5.799 7.503,8.421 0.32,-0.284 -0.39,-1.643 -1.798,-3.734 -1.393,-2.106 -3.504,-4.924 -6.068,-8.059 -4.148,-4.914 -2.272,-1.705 -2.93,-2.614 -8.215,-8.862 -5.764,-8.637 -12.799,-15.798 -3.013,-2.652 -0.926,0.566 -1.797,0.154 3.282,4.093 5.53,5.853 7.841,8.55 l -3.057,-3.135 c 0.959,1.376 3.139,4.12 4.55,5.417 -1.325,-1.055 -4.667,-4.915 -8.522,-9.322 -3.831,-4.426 -8.23,-9.351 -11.37,-12.804 -0.925,-1.389 -2.615,-3.704 -1.582,-2.805 l 1.833,2.312 c 2.068,1.801 -3.1,-4.647 -0.553,-1.913 -2.302,-3.233 -4.774,-6.941 -8.529,-11.057 l -1.144,-0.412 c 0.215,-0.023 2.614,2.56 3.474,3.881 -1.268,-1.961 -6.135,-6.009 -7.101,-8.506 0.917,0.93 1.864,1.836 2.808,2.744 -2.319,-3.235 -4.836,-7.509 -8.089,-11.217 1.876,1.369 0.658,0.931 3.403,3.215 -1.293,-0.906 0.689,1.545 2.522,3.821 1.816,2.289 3.579,4.325 1.646,2.756 2.939,2.237 4.257,4.555 7.807,7.713 -0.249,0.017 -1.364,-1.03 1.364,2.082 0.075,0.182 0.299,0.567 0.445,0.811 0.087,0.093 0.117,0.125 0.191,0.205 -0.06,-0.058 -0.104,-0.101 -0.165,-0.16 0.092,0.158 0.097,0.173 -0.06,-0.06 -0.7,-0.699 -1.293,-1.244 -1.587,-1.421 0.96,1.875 5.191,6.92 6.435,8.785 1.665,1.809 -0.49,-0.933 0.542,-0.05 l 1.904,2.747 c 0.558,-0.043 4.841,4.443 1.251,-0.097 l 3.426,3.918 c 2.199,2.15 5.036,5.267 6.596,7.355 1.682,1.79 3.691,5.014 2.553,3.165 1.72,2.111 3.496,4.173 5.242,6.263 l 0.135,-0.019 c 5.451,5.926 10.494,12.878 17.443,18.995 1.771,2.057 3.587,4.197 6.782,7.419 l 0.886,0.378 c 2.247,2.668 7.52,7.27 8.268,8.626 3.391,1.94 11.89,11.993 16.45,16.092 l -0.193,0.522 c 3.02,2.939 5.796,5.877 9.379,9.698 l -0.541,0.095 c 0.74,0.856 1.635,1.787 2.655,2.76 1.033,0.962 2.18,1.98 3.394,3.046 2.426,2.134 5.118,4.463 7.692,6.934 -0.234,-0.459 -1.579,-1.671 -2.58,-2.477 3.449,2.556 6.56,5.806 9.638,8.954 3.104,3.118 6.115,6.199 9.222,8.527 1.317,1.417 2.386,2.315 3.461,3.139 -0.132,-0.121 -0.245,-0.235 -0.338,-0.339 0.148,0.132 0.366,0.329 0.589,0.529 0.68,0.515 1.381,1.048 2.139,1.623 -0.669,-0.462 -1.301,-0.914 -1.825,-1.336 1.102,0.995 2.7,2.59 4.304,4.109 l 1.029,0.258 c 0.132,0.122 0.238,0.22 0.376,0.346 1.75,1.292 1.162,1.316 0.05,0.828 0.786,0.79 1.491,1.532 2.01,2.139 1.84,0.573 4.196,4.008 6.552,4.963 0.853,1.287 8.168,7.535 8.537,8.924 0.13,-0.035 0.66,0.348 -0.244,-0.432 1.939,1.528 3.879,3.049 5.406,4.672 l 1.194,0.216 3.56,4.131 c 2.727,1.851 3.889,2.59 1.74,0.094 5.451,5.719 4.667,4.358 9.177,9.355 l 0.02,-0.513 c 1.776,1.604 4.279,4.531 5.542,5.288 1.108,0.769 2.883,2.275 5.087,4.238 2.168,2.003 4.749,4.484 7.493,7.172 1.343,1.375 2.733,2.797 4.137,4.233 0.703,0.718 1.41,1.438 2.117,2.159 0.684,0.741 1.37,1.482 2.05,2.219 1.374,1.462 2.733,2.906 4.042,4.299 1.285,1.419 2.522,2.786 3.682,4.067 -2.614,-1.318 4.543,4.586 4.078,5.664 0.704,0.471 1.997,1.914 0.829,-0.018 4.138,5.724 6.603,8.363 8.747,12.802 0.69,0.519 -0.515,-1.471 0.029,-0.966 0.132,0.253 0.407,0.746 0.7,1.252 0.275,0.517 0.586,1.037 0.846,1.309 0.503,0.539 -0.32,-1.027 -0.846,-2.025 3.768,6.214 3.379,7.289 2.969,8.128 1.139,1.445 1.797,2.648 2.358,3.755 0.551,1.114 0.942,2.168 1.321,3.452 0.822,1.001 2.055,2.761 0.053,-1.249 0.304,0.553 0.92,1.673 1.676,3.046 0.395,0.679 0.757,1.454 1.122,2.258 0.367,0.803 0.746,1.632 1.117,2.443 0.734,1.628 1.42,3.2 1.892,4.394 0.498,1.183 0.643,2.045 0.533,2.157 0.425,0.68 1.267,3.285 1.428,3.932 0.502,1.321 0.889,2.34 1.218,3.207 0.166,0.434 0.318,0.83 0.461,1.206 0.13,0.381 0.233,0.749 0.346,1.113 0.217,0.73 0.434,1.458 0.694,2.335 0.286,0.996 0.621,2.162 1.055,3.673 L 288.007,3.14 c 0.002,1.371 0.337,2.661 0.874,4.339 0.14,0.428 0.288,0.878 0.444,1.353 l 0.121,0.367 c -0.109,0.017 -0.238,0.023 -0.359,0.035 -0.249,0.021 -0.505,0.042 -0.768,0.065 -1.06,0.085 -2.288,0.169 -3.679,0.217 l 0.184,0.07 c -1.386,0.132 -2.5,0.238 -3.41,0.325 -0.833,0.066 -1.479,0.116 -2.001,0.157 -1.043,0.064 -1.589,0.062 -2.131,0.061 -1.082,-10e-4 -2.146,0.007 -7.145,0.582 l 0.524,-0.507 c -0.979,-0.969 -8.859,0.954 -14.699,0.789 l 2.092,-0.354 c -3.19,-0.222 -8.841,1.742 -12.038,1.925 -0.695,0.107 1.104,0.117 2.08,0.159 -8.356,0.816 -1.104,-0.601 -7.343,-0.592 -1.143,0.367 1.504,0.825 -2.694,0.992 -1.043,0.151 -4.094,-0.011 -7.598,-0.203 -3.504,-0.187 -7.458,-0.323 -10.319,0.036 1.259,-0.276 2.509,-0.552 -0.389,-0.714 -4.438,-0.007 -12.002,1.051 -16.013,0.217 -0.564,0.07 -0.777,0.138 -0.802,0.203 -1.696,-0.109 -4.454,-0.202 -7.042,-0.324 -2.587,-0.132 -5.004,-0.333 -6.024,-0.566 -1.577,0.805 -6.851,0.524 -11.72,0.233 -4.868,-0.306 -9.328,-0.701 -9.312,0.074 l -10.434,-0.377 0.267,0.163 c -6.673,-0.148 -9.017,-0.632 -11.344,-1.09 -1.546,0.04 -0.427,0.229 -0.303,0.314 -9.755,-0.076 -10.723,-0.247 -18.842,-1.446 l -0.876,0.448 c -1.098,-0.216 -4.63,-0.176 -9.073,-0.317 -4.443,-0.144 -9.802,-0.387 -14.552,-1.002 0.089,0.063 0.28,0.172 1.033,0.294 C 94.035,7.702 78.909,8.377 75.151,6.16 L 68.127,5.046 C 77.281,5.774 66.842,4.138 70.631,4.196 67.049,3.757 61.289,3.845 65.694,4.368 l 0.7,-0.025 C 67.918,5.481 55.015,3.476 55.192,4.136 46.207,3.162 37.335,2.201 28.605,1.254 24.241,0.77 19.919,0.226 15.634,-0.291 11.348,-0.805 7.104,-1.346 2.918,-1.979 L 4.952,-2.416 0.543,-3.029 c -0.831,0.049 -0.437,0.514 1.484,0.769 -0.462,0.141 -1.176,-0.053 -2.157,-0.359 -0.942,-0.3 -2.159,-0.714 -2.376,-0.826 -2.171,-0.173 -0.83,0.241 0.309,0.591 1.203,0.359 2.292,0.666 1.822,0.605 l -1.481,-0.275 c 0.022,-0.026 0.05,-0.05 0.083,-0.074 -0.746,-0.229 -1.278,-0.392 -1.795,-0.55 -0.114,0.147 0.059,0.485 1.619,1.83 0.842,0.645 1.178,0.792 1.401,0.858 0.22,0.064 0.326,0.046 0.561,0.234 0.079,0.001 0.239,0.11 0.679,0.572 L 5.377,4.4 2.767,2.866 c 2.281,2.394 5.258,4.603 2.254,2.824 4.441,2.576 21.02,18.08 23.544,19.891 3.18,3.37 6.598,6.378 10.86,10.075 -1.131,-0.838 -2.19,-0.907 1.51,2.254 -0.447,-2.182 7.064,5.462 10.649,7.343 -3.057,-1.847 10.264,9.275 5.53,6.305 3.115,2.607 0.517,-0.212 3.034,1.59 6.9,6.786 16.186,13.845 25.023,21.883 0.023,0.255 -1.654,-0.868 0.093,1.024 l 5.309,3.516 c 1.711,1.626 0.956,2.199 4.591,4.594 -0.554,-0.292 -1.383,-0.726 -0.234,0.363 18.106,14.847 35.375,32.179 54.253,46.702 -2.638,-1.875 -1.053,-0.43 0.781,1.207 -1.252,-0.997 -0.26,0.349 -0.653,0.32 l 7.895,6.089 c 0.921,1.696 7.965,7.095 8.325,8.257 l -2.286,-2.171 c 2.647,3.333 -5.493,-2.638 -5.668,-1.514 -2.954,-3.741 -10.103,-7.247 -15.068,-13.252 -1.404,-0.979 0.882,1.19 0.053,0.755 -1.191,-1.599 -2.9,-3.223 -6.294,-5.975 l 0.302,0.403 c -9.129,-8.196 -13.339,-11.373 -23.846,-20.294 l 1.078,0.32 c -2.261,-1.912 -2.827,-2.214 -3.945,-3.042 -2.072,-2.789 6.261,5.475 4.464,2.832 -3.582,-1.878 -15.662,-13.813 -18.377,-14.749 -3.419,-3.012 1.364,0.472 -2.054,-2.538 l -1.101,-0.577 -0.61,-1.048 c -2.281,-1.93 -3.656,-2.649 -3.905,-2.535 0.562,0.457 1.497,1.416 2.065,1.946 -3.134,-2.302 -8.107,-7.318 -9.179,-8.114 l 3.402,2.761 C 75.426,71.873 63.791,62.116 55.186,53.713 l 0.832,0.436 C 49.416,47.768 50.348,49.47 42.926,42.66 l 0.24,0.282 C 41.802,41.441 39.859,39.575 37.776,37.77 39.509,39.649 33.853,34.984 36.162,37.409 29,30.492 32.705,33.891 28.331,28.92 L 26.95,28.195 c -1.456,-1.734 -1.48,-1.99 -5.186,-5.392 2.882,2.97 -2.78,-1.701 0.405,1.674 C 13.722,18.098 10.964,13.488 6.55,11.172 3.596,7.194 13.773,16.791 11.884,14.83 13.809,16.083 9.393,11.606 6.842,9.491 5.571,8.383 4.279,7.681 2.512,6.551 1.629,5.986 0.627,5.315 -0.551,4.433 -1.017,4.101 -2.063,3.242 -3.063,2.403 -4.083,1.548 -5.197,0.587 -6.389,-0.469 c 0.956,0.838 0.914,0.905 1.882,1.754 -1.984,-1.578 -3.698,-3.21 -5.405,-4.807 -1.742,-1.63 -3.455,-3.207 -6.355,-5.484 l -0.031,-0.064 c 2.54,0.667 4.219,0.903 5.78,1.149 1.539,0.241 2.875,0.479 3.968,1.035 l -7.842,-1.298 2.129,1.949 c -0.671,-0.638 -1.262,-1.233 -1.804,-1.797 2.732,0.571 5.547,1.16 8.793,1.839 1.432,0.283 2.85,0.542 4.343,0.771 0.748,0.114 1.516,0.221 2.326,0.322 0.407,0.048 0.824,0.097 1.25,0.147 0.394,0.038 0.797,0.078 1.209,0.12 C 3.709,-4.896 3.512,-4.968 3.167,-5.064 2.784,-5.159 2.321,-5.274 1.823,-5.397 0.801,-5.638 -0.43,-5.903 -1.463,-6.116 c 1.327,0.079 2.764,0.332 4.134,0.574 0.768,0.133 1.17,0.212 1.715,0.292 0.521,0.076 1.053,0.134 1.606,0.156 C 5.865,-5.313 5.22,-5.52 4.251,-5.728 4.008,-5.776 3.746,-5.828 3.467,-5.883 3.061,-5.952 2.631,-6.024 2.181,-6.1 1.256,-6.245 0.249,-6.402 -0.805,-6.568 c -4.268,-0.654 -9.059,-1.361 -13.53,-2.33 1.319,0.026 5.246,0.754 7.859,1.222 1.326,0.236 2.376,0.415 2.831,0.441 0.448,0.026 0.336,-0.096 -0.856,-0.49 1.686,0.526 3.193,0.879 4.769,1.165 0.786,0.143 1.588,0.268 2.422,0.388 0.634,0.083 1.29,0.169 1.968,0.256 2.361,0.287 5.012,0.584 7.799,1.367 l -0.31,-0.52 c 0.889,0.195 2.722,0.669 4.379,0.88 l -2.913,-1.014 c 4.53,1.141 8.929,0.743 13.303,1.622 -9.236,-1.262 -2.148,0.287 -6.101,0.102 11.319,2.177 6.718,-0.369 19.46,1.438 -1.721,-0.277 -6.528,-0.507 -3.849,0.04 2.445,0.199 5.679,0.409 7.2,0.343 8.457,1.103 -1.357,0.338 2.214,1.055 2.952,-0.252 4.138,0.687 7.837,1.276 l 0.079,-0.477 c 9.697,0.738 2.455,1.281 11.2,1.845 L 61.346,0.98 c 1.507,0.215 3.01,0.457 4.52,0.648 L 64.984,0.994 c 4.9,0.874 6.451,0.915 11.306,1.221 -1.158,0.232 0.55,0.931 4.838,1.354 C 84.079,3.547 79.529,2.987 85.605,3.572 84.257,3.166 82.787,2.659 80.104,2.843 79.848,2.661 78.779,2.413 78.514,2.232 81.689,2.223 86.432,2.879 88.635,3.051 87.786,3 86.771,2.943 86.245,2.969 l 8.762,1.385 C 96.41,4.287 95.32,4.052 94.241,3.821 c 1.782,0.198 3,0.52 5.623,0.775 -0.65,-0.446 -0.456,-0.836 -4.156,-1.324 2.788,0.361 5.573,0.774 8.367,1.091 0.574,-0.131 4.347,-0.173 3.266,-0.391 4.675,0.062 11.377,1.596 17.583,1.599 0.317,0.094 0.957,0.202 2.269,0.33 5.82,0.213 10.987,0.081 17.858,0.87 l 3.94,-0.54 c 5.392,0.384 -5.332,0.665 3.649,1.304 6.359,0.489 2.399,-0.5 4.638,-0.603 3.152,0.458 8.64,1.324 14.506,0.921 -1.933,-0.187 -3.454,-0.126 -5.262,-0.229"
                 style="fill:#ffffff;fill-opacity:0.56862748;fill-rule:nonzero;stroke:#e8e8e8;stroke-width:0.99975002;stroke-miterlimit:4;stroke-dasharray:none;stroke-opacity:1"
                 id="path522"
                 inkscape:connector-curvature="0" /></g><g
               id="g524"
               transform="translate(445.4727,452.3677)"
               style="fill:#ffffff;fill-opacity:0.56862748"><path
                 d="M 0,0 C 0.241,0.283 0.367,0.33 0.487,0.364 0.65,0.847 0.571,0.899 0,0"
                 style="fill:#ffffff;fill-opacity:0.56862748"
                 id="path526"
                 inkscape:connector-curvature="0" /></g><g
               id="g528"
               transform="translate(296.4131,481.2598)"
               style="fill:#ffffff;fill-opacity:0.56862748"><path
                 d="M 0,0 -0.203,-0.006 C -0.312,-0.041 -0.37,-0.073 -0.401,-0.104 Z"
                 style="fill:#ffffff;fill-opacity:0.56862748"
                 id="path530"
                 inkscape:connector-curvature="0" /></g><g
               id="g532"
               transform="matrix(1.8745067,0,0,2.247737,291.2051,294.9866)"
               style="fill:#ffffff;fill-opacity:0.56862748"><path
                 d="M 0,0 C 0.928,0.818 1.481,1.24 1.872,1.497 1.837,1.628 1.367,1.304 0,0"
                 style="fill:#ffffff;fill-opacity:0.56862748"
                 id="path534"
                 inkscape:connector-curvature="0" /></g><g
               id="g536"
               transform="translate(231.50789,211.57582)"
               style="fill:#ffffff;fill-opacity:0.56862748"><path
                 d="M 0,0 2.356,3.021 C 1.187,1.584 0.682,1.144 0.023,0.474 0.166,0.467 0.759,0.927 0,0"
                 style="fill:#ffffff;fill-opacity:0.56862748"
                 id="path538"
                 inkscape:connector-curvature="0" /></g><g
               id="g540"
               transform="translate(208.45469,187.39412)"
               style="fill:#ffffff;fill-opacity:0.56862748"><path
                 d="m 0,0 c -0.297,-0.479 -0.723,-0.944 -1.014,-1.419 l 0.271,-0.017 C 0.707,0.463 1.587,1.896 0,0"
                 style="fill:#ffffff;fill-opacity:0.56862748"
                 id="path542"
                 inkscape:connector-curvature="0" /></g><g
               id="g544"
               transform="translate(228.04409,209.82482)"
               style="fill:#ffffff;fill-opacity:0.56862748"><path
                 d="m 0,0 c -0.505,0.019 -1.906,-1.943 -3.53,-4.085 0.101,0.126 0.197,0.245 0.298,0.37 C -3.287,-4.688 -1.64,-2.34 0,0"
                 style="fill:#ffffff;fill-opacity:0.56862748"
                 id="path546"
                 inkscape:connector-curvature="0" /></g><g
               id="g548"
               transform="translate(224.13439,205.24572)"
               style="fill:#ffffff;fill-opacity:0.56862748"><path
                 d="M 0,0 C -0.504,-0.657 -1.025,-1.323 -1.548,-1.942 -1.567,-2.33 -0.88,-1.187 0,0"
                 style="fill:#ffffff;fill-opacity:0.56862748"
                 id="path550"
                 inkscape:connector-curvature="0" /></g><g
               id="g552"
               transform="translate(246.53279,230.43422)"
               style="fill:#ffffff;fill-opacity:0.56862748"><path
                 d="M 0,0 C -0.895,-0.908 -0.117,-0.948 -0.704,-1.395 -1.253,-2.793 4.334,5.459 0,0"
                 style="fill:#ffffff;fill-opacity:0.56862748"
                 id="path554"
                 inkscape:connector-curvature="0" /></g><g
               id="g556"
               transform="translate(225.64369,208.97232)"
               style="fill:#ffffff;fill-opacity:0.56862748"><path
                 d="m 0,0 0.993,0.435 0.63,1.429 z"
                 style="fill:#ffffff;fill-opacity:0.56862748"
                 id="path558"
                 inkscape:connector-curvature="0" /></g><g
               id="g560"
               transform="translate(239.44789,225.10212)"
               style="fill:#ffffff;fill-opacity:0.56862748"><path
                 d="M 0,0 -2.859,-3.208 C -2.753,-3.212 -3.065,-3.662 -3.466,-4.201 -1.757,-2.18 0.178,-0.018 0,0"
                 style="fill:#ffffff;fill-opacity:0.56862748"
                 id="path562"
                 inkscape:connector-curvature="0" /></g><g
               id="g564"
               transform="translate(235.98199,220.90102)"
               style="fill:#ffffff;fill-opacity:0.56862748"><path
                 d="M 0,0 C -0.891,-1.052 -1.723,-2.065 -2.151,-2.706 -1.678,-2.131 -0.662,-0.888 0,0"
                 style="fill:#ffffff;fill-opacity:0.56862748"
                 id="path566"
                 inkscape:connector-curvature="0" /></g><g
               id="g568"
               transform="translate(229.20709,213.64512)"
               style="fill:#ffffff;fill-opacity:0.56862748"><path
                 d="M 0,0 0.895,0.908 2.868,3.214 Z"
                 style="fill:#ffffff;fill-opacity:0.56862748"
                 id="path570"
                 inkscape:connector-curvature="0" /></g><g
               id="g572"
               transform="matrix(1.8745067,0,0,2.247737,222.73479,209.63174)"
               style="fill:#ffffff;fill-opacity:0.56862748"><path
                 d="M 0,0 3.032,3.578 C 3.225,4.049 2.292,3.17 1.173,1.827 0.511,0.913 -0.604,-0.423 0,0"
                 style="fill:#ffffff;fill-opacity:0.56862748"
                 id="path574"
                 inkscape:connector-curvature="0" /></g><g
               id="g576"
               transform="matrix(1.8745067,0,0,2.247737,203.04872,187.96872)"
               style="fill:#ffffff;fill-opacity:0.56862748"><path
                 d="M 0,0 C 0.909,0.891 1.048,0.881 1.652,1.302 L 1.283,1.819 C 0.844,1.222 0.423,0.61 0,0"
                 style="fill:#ffffff;fill-opacity:0.56862748"
                 id="path578"
                 inkscape:connector-curvature="0" /></g><g
               id="g580"
               transform="matrix(1.8745067,0,0,2.247737,219.98714,211.06961)"
               style="fill:#ffffff;fill-opacity:0.56862748"><path
                 d="M 0,0 C 0.185,0.463 4.195,5.393 0.24,0.946 0.047,0.478 -2.994,-3.109 0,0"
                 style="fill:#ffffff;fill-opacity:0.56862748"
                 id="path582"
                 inkscape:connector-curvature="0" /></g><g
               id="g584"
               transform="matrix(1.8745067,0,0,2.247737,303.14047,303.72513)"
               style="fill:#ffffff;fill-opacity:0.56862748"><path
                 d="m 0,0 -0.844,-0.844 0.839,-0.603 z"
                 style="fill:#ffffff;fill-opacity:0.56862748"
                 id="path586"
                 inkscape:connector-curvature="0" /></g><g
               id="g588"
               transform="translate(351.0244,354.1123)"
               style="fill:#ffffff;fill-opacity:0.56862748"><path
                 d="m 0,0 c -4.344,-3.496 -0.577,-1.34 -4.516,-4.482 -0.806,-1.059 3.207,2.581 2.355,1.524 C 0.164,-0.519 1.616,0.505 0,0"
                 style="fill:#ffffff;fill-opacity:0.56862748"
                 id="path590"
                 inkscape:connector-curvature="0" /></g><g
               id="g592"
               transform="translate(348.8633,351.1543)"
               style="fill:#ffffff;fill-opacity:0.56862748"><path
                 d="M 0,0 C -0.371,-0.392 -0.761,-0.812 -1.165,-1.269 -0.488,-0.567 -0.182,-0.223 0,0"
                 style="fill:#ffffff;fill-opacity:0.56862748"
                 id="path594"
                 inkscape:connector-curvature="0" /></g><g
               id="g596"
               transform="translate(333.8301,618.5435)"
               style="fill:#ffffff;fill-opacity:0.56862748"><path
                 d="M 0,0 2.819,2.207 0.864,0.937 Z"
                 style="fill:#ffffff;fill-opacity:0.56862748"
                 id="path598"
                 inkscape:connector-curvature="0" /></g><g
               id="g600"
               transform="translate(338.4717,623.6509)"
               style="fill:#ffffff;fill-opacity:0.56862748"><path
                 d="M 0,0 1.061,0.07 2.28,1.931 C 1.694,1.375 0.557,0.296 0,0"
                 style="fill:#ffffff;fill-opacity:0.56862748"
                 id="path602"
                 inkscape:connector-curvature="0" /></g><g
               id="g604"
               transform="translate(414.3291,482.4185)"
               style="fill:#ffffff;fill-opacity:0.56862748"><path
                 d="M 0,0 0.276,0.149 C -0.271,0.332 -1.105,0.365 -2.776,0.433 Z"
                 style="fill:#ffffff;fill-opacity:0.56862748"
                 id="path606"
                 inkscape:connector-curvature="0" /></g><g
               id="g608"
               transform="translate(365.9902,483.3506)"
               style="fill:#ffffff;fill-opacity:0.56862748"><path
                 d="m 0,0 0.832,-0.007 -1.561,0.57 z"
                 style="fill:#ffffff;fill-opacity:0.56862748"
                 id="path610"
                 inkscape:connector-curvature="0" /></g><g
               id="g612"
               transform="translate(325.4463,481.6479)"
               style="fill:#ffffff;fill-opacity:0.56862748"><path
                 d="M 0,0 C 1.654,0.041 3.594,0.269 5.258,0.279 1.654,0.066 -0.475,0.704 0,0"
                 style="fill:#ffffff;fill-opacity:0.56862748"
                 id="path614"
                 inkscape:connector-curvature="0" /></g></g></g></g></g></g></svg>