<svg xmlns="http://www.w3.org/2000/svg" width="210mm" height="297mm" viewBox="0 0 210 297"><defs><clipPath clipPathUnits="userSpaceOnUse" id="a"><path d="M2344 4845c0-381.07-308.93-690-690-690-381.08 0-690 308.93-690 690 0 381.08 308.92 690 690 690 381.07 0 690-308.92 690-690"/></clipPath></defs><g clip-path="url(#a)" transform="matrix(.14765 0 0 -.15457 -138.46 882.292)" fill="#f9f9f9"><path d="M1670 4126.67l563.92 72.66s-4.93 281.54-64.47 310.29c-59.55 28.75-126.87 62.1-157.66 76.46-30.81 14.38-79.17 36.35-79.17 36.35s-34.53 83.66-88.75 97.57l-10.02 63.71s45.12 78.79 55.12 161.29c0 0 28.81-29.85 39.09 25.6 7.96 42.98 14.46 90.62-4.04 98.42 1.77 9.28 1.44 19.05-.68 26.68-1.18 4.26-4.39 7.44-8.14 9.1l-.06.31c5.93 13.23 10.45 27.06 12.71 41.62 1.74 11.24 1.08 21.17-1.09 32.32-1.1 5.71-5.27 10.55-9.02 15.39.69 6.75.18 12.56-2.74 15.66-2.68 2.84-5.56 5.98-8.34 9.32-2.23 6.43-5.8 12.43-11.37 17.8-2.43 5.93-3.41 12.13-1.73 18.34 2.75 10.16-2.81 21.78-5.05 31.57-5.93 26-30.81 30.19-38.76 53.92-5.25 15.65-24.58 16.28-40.59 14.33-1.94 2.06-3.78 4.19-5.4 6.57-2.8 4.11-10.83 6.62-15.19 8.69-5.34 2.54-10.4 2.86-15.23 1.72-5.99 12.7-17.36 24.59-30.58 23.89-3.06 8.09-11.93 13.79-21.09 11.17-5.33-1.52-10.28-4.14-14.42-7.66-.81 1.43-1.78 2.76-3.09 3.81-13.54 10.86-35.32 4.08-51.43 4.04-12.11-.03-21.38-2.48-30.18-7l-.84.9c-9.09 6.56-19.05 3.2-28.46-.97-6.16-2.73-8.06-5.06-14.9-4.63-6.05.38-13.11.76-18.83-1.7-8.21-3.52-13.35-11.51-16.16-20.75l-2.59-.99c-.48 1.14-1.05 2.23-1.87 3.15-19.78 22.46-54.7-22.71-60.4-38.84l-.42-.77c-8.03-1.54-15.34-5.63-21.79-11.42-2.01-.56-3.93-1.14-5.53-1.91-8-3.81-10.6-13.49-12.94-21.11-.99-3.22-1.13-6.53-.93-9.84-1.17-3.38-2.52-6.65-3.92-9.88-4.46 1.49-9.43.44-12.54-5.02-8.58-15.1-17.38-29.38-23.74-45.57-1.73-4.39-2.62-8.42-2.98-12.27-13.64-15.3-20.83-34.81-1.42-51.77 1.51-1.31-5.74-41.19-5.88-44.76-.81-19.67 6.53-36.07 11.4-53.73-34.88 11.31-27.39-46.77-17.88-98.13 10.27-55.45 39.07-25.6 39.07-25.6 10-82.5 55.09-161.29 55.09-161.29L1464 4720c-54.22-13.91-88.87-97.57-88.87-97.57s-48.61-21.97-79.42-36.35c-30.79-14.36-98.62-47.71-158.17-76.46-59.54-28.75-67.45-310.29-67.45-310.29l599.91-72.66"/></g></svg>