<svg xmlns="http://www.w3.org/2000/svg" width="210mm" height="297mm" viewBox="0 0 210 297"><defs><clipPath clipPathUnits="userSpaceOnUse" id="a"><path d="M7036 1745c0-381.07-308.91-690-690-690-381.08 0-690 308.93-690 690s308.92 690 690 690c381.09 0 690-308.93 690-690"/></clipPath></defs><g clip-path="url(#a)" transform="matrix(.14606 0 0 -.156 -821.053 402.242)" fill="#f9f9f9"><path d="M6705.49 1387.37c-8.35 11.63-18.78 21.76-29.16 28.81-18.9 12.84-34.1 11.08-54.36 3.25-2.97-1.14-6.03-2.44-9-3.96-11.29 3.51-21.77 6.54-31.84 9.39-16.04 22.11-39.01 41.14-57.3 52.86-18.46 11.82-43.51 24.71-66.45 24.51-2.01 14.77-.95 31.62.62 49.83 78.2-2.9 165.41-3.71 202 4.6l-36.66 33.33s50-3.33 83.33 10l-40 29.27S6690 1635 6720 1635c0 0-56.66 125-56.66 161.66L6690 1795s-39.99 108.33-46.66 201.66c0 0 23.32-20 56.66-10 0 0-49.97 60-66.65 120-16.68 60-50.02 153.32-173.35 196.66-123.33 43.34-276.66-3.32-306.66-76.66 0 0-96.67-33.33-126.67-180-30-146.67-9.99-283.34-33.33-336.67l30 6.67s-20.01-80-53.34-110l40 6.67s10.01-20.01-26.66-50.01c0 0 141.52-19.36 245.67-15.25 1.38-16.68 2.15-32.15.29-45.84-22.94.2-47.99-12.69-66.45-24.51-18.29-11.72-41.26-30.75-57.3-52.86-10.07-2.85-20.55-5.88-31.84-9.39-2.97 1.52-6.03 2.82-9 3.96-20.26 7.83-35.46 9.59-54.36-3.25-10.38-7.05-20.81-17.18-29.16-28.81-51.16-15.87-91.45-35.52-127.85-100.7-51.84-92.8-90.02-317.26-90.02-317.26l580.02-9.301 580.02 9.301s-38.18 224.46-90.02 317.26c-36.4 65.18-76.69 84.83-127.85 100.7"/></g></svg>